<svg xmlns="http://www.w3.org/2000/svg" xmlns:xlink="http://www.w3.org/1999/xlink" viewBox="0 0 211.9 197.13"><defs><style>.cls-1{fill:url(#linear-gradient);}.cls-2{fill:#49a9e0;}.cls-3{fill:#139090;}.cls-4{fill:#147775;}.cls-5{opacity:0.4;}.cls-6{fill:#fff;}.cls-7{fill:url(#linear-gradient-2);}.cls-8{opacity:0.3;}.cls-9{fill:#272c60;}.cls-10{fill:#0f5d5e;}.cls-11{opacity:0.2;}.cls-12{fill:url(#linear-gradient-3);}.cls-13{fill:#ffd258;}.cls-14{fill:#e62e38;}.cls-15{fill:#bb292c;}.cls-16{fill:#ffea34;}.cls-17{fill:url(#linear-gradient-4);}.cls-18{fill:#fbc50b;}.cls-19{fill:none;stroke:#4f2e15;stroke-linecap:round;stroke-linejoin:round;stroke-width:1.42px;}</style><linearGradient id="linear-gradient" x1="78.54" y1="1013.43" x2="78.54" y2="1043.52" gradientTransform="matrix(1, 0, 0, -1, 0, 1065.29)" gradientUnits="userSpaceOnUse"><stop offset="0" stop-color="#fff"/><stop offset="1" stop-color="#31b3b1" stop-opacity="0"/></linearGradient><linearGradient id="linear-gradient-2" x1="71.33" y1="984.3" x2="288.81" y2="857.43" gradientTransform="matrix(1, 0, 0, -1, 0, 1065.29)" gradientUnits="userSpaceOnUse"><stop offset="0" stop-color="#31b3b1"/><stop offset="1" stop-color="#31b3b1" stop-opacity="0"/></linearGradient><linearGradient id="linear-gradient-3" x1="99.16" y1="1018.65" x2="89.37" y2="983.89" gradientTransform="matrix(1, 0, 0, -1, 0, 1065.29)" gradientUnits="userSpaceOnUse"><stop offset="0" stop-color="#fff"/><stop offset="1" stop-color="#fff" stop-opacity="0"/></linearGradient><linearGradient id="linear-gradient-4" x1="68.45" y1="1051.73" x2="79.94" y2="1038" gradientTransform="matrix(1, 0, 0, -1, 0, 1065.29)" gradientUnits="userSpaceOnUse"><stop offset="0" stop-color="#f7cb3b"/><stop offset="1" stop-color="#f6c017" stop-opacity="0"/></linearGradient></defs><g id="Layer_2" data-name="Layer 2"><g id="Layer_1-2" data-name="Layer 1"><path class="cls-1" d="M85.69,52.9C84,45.21,98,40,104.13,42.47c5.81,2.39,5.74-.76-2.21-3.11-8.55-2.53-21.45,3.77-30.72,1.69s-16.5-2.79-20.37-1.28c-1.82.71-3.65,2.06.69,1.65C63,40.33,74,48.18,67.6,51.26"/><path class="cls-2" d="M77.22,127s-18.16,24.62,6.12,40.6a2.7,2.7,0,0,0,4.15-2,50.67,50.67,0,0,1,1.87-9.71,72.34,72.34,0,0,0,3.13-12.6"/><path class="cls-3" d="M77.22,127s-18.16,24.62,6.12,40.6a2.7,2.7,0,0,0,4.15-2,50.67,50.67,0,0,1,1.87-9.71,72.34,72.34,0,0,0,3.13-12.6"/><path class="cls-4" d="M84.8,169.15a3.73,3.73,0,0,1-2.07-.63C75.51,163.77,71.22,157.8,70,150.76c-2.25-12.59,6-24,6.36-24.44a1.12,1.12,0,0,1,1.8,1.32c-.11.14-8,11.11-6,22.73,1.15,6.4,5.11,11.87,11.79,16.27a1.53,1.53,0,0,0,1.52.1,1.58,1.58,0,0,0,.9-1.27,51.58,51.58,0,0,1,1.92-9.93,72.56,72.56,0,0,0,3.09-12.41,1.12,1.12,0,0,1,2.23.27,74,74,0,0,1-3.18,12.8,49.64,49.64,0,0,0-1.83,9.49,3.78,3.78,0,0,1-2.16,3.07A3.66,3.66,0,0,1,84.8,169.15Z"/><path class="cls-3" d="M191,89.19S211.21,81.81,210.66,71c-.67-13.31-20.36,3.58-20.36,3.58S179.74,49.77,174.84,61.1c-4.23,9.76,4.29,24.64,4.29,24.64S187,73.92,189.74,74.79,191,89.19,191,89.19Z"/><g class="cls-5"><path class="cls-6" d="M189.44,72.65c-2-2.93-6.86-9.91-9.81-11.4-2-1-3.82,1.63-3.82,5.77,0,3.86,3.33,16.84,3.33,16.84l-1,0c-2.1-4.28-6.66-15.12-3.33-22.8C178.9,51.73,186.83,67.08,189.44,72.65Z"/></g><g class="cls-5"><path class="cls-6" d="M194.11,87.88c3.91-2.7,12.44-9,13.57-13.07,1-3.77,1.13-6.4-3.16-6.24-3.81.14-13.37,6.48-13.37,6.48s.1-.52.28-1.41c4.18-3.34,18.67-14,19.24-2.66C211.07,79.11,199.77,85.3,194.11,87.88Z"/></g><path class="cls-4" d="M191,90.41a1.22,1.22,0,0,1-.42-2.37c.19-.07,19.37-7.19,18.87-17-.1-2-.68-3.27-1.73-3.72-3.45-1.48-12,4.22-16.62,8.16l-1.27,1.09L189.17,75c-2.77-6.5-8-15.66-11.11-15.67h0c-.94,0-1.66,1.21-2.1,2.23-3.93,9.08,4.15,23.4,4.23,23.54a1.22,1.22,0,1,1-2.12,1.22c-.36-.63-8.77-15.53-4.35-25.73,1.06-2.46,2.53-3.7,4.34-3.7h0c5.07,0,10.6,11,12.7,15.67,3.51-2.82,12.85-9.69,17.91-7.51,2,.85,3,2.81,3.2,5.84.59,11.61-19.62,19.11-20.48,19.43A1.14,1.14,0,0,1,191,90.41Z"/><path class="cls-7" d="M188.64,115.05a51.37,51.37,0,0,1-5.72,15.56c-13.83,23-52.24,31.74-98,25.51-56.72-7.72-66.46-52-66.46-52s0-.06,0-.18c.34-2.54,4.69-31.33,30.86-45.8,28.53-15.77,60-5.56,84.08,26.85C148,104.53,167,114.33,175.7,93.18s14.6-18.63,14.6-18.63S192.67,96.33,188.64,115.05Z"/><g class="cls-5"><path class="cls-6" d="M175.7,93.18C167,114.32,148,104.52,133.41,85c-20-26.85-45-38.47-69.2-32.69a59.39,59.39,0,0,0-14.88,5.84,56.48,56.48,0,0,0-8.43,5.7c-15.73,12.81-20.65,30.84-22,37.59,1.9-5.21,9.9-25,25.94-36.31a25.31,25.31,0,0,0,9.82-1.6c5.22-1.84,9.24-4.73,10.54-7.29,23.9-5.24,48.5,6.43,68.21,32.91C148,108.68,167.1,118,177,97.36c6.58-13.73,10.67-20.34,12.39-22.88C187.38,74.68,182.37,77,175.7,93.18Z"/></g><path class="cls-6" d="M188.64,115.05a51.37,51.37,0,0,1-5.72,15.56c-13.83,23-52.24,31.74-98,25.51-56.72-7.72-66.46-52-66.46-52s0-.06,0-.18c4.23-2.27,14.78,15.12,42.87,12,8.73-1,26.7-8.46,26.7-8.46S167.8,156.19,188.64,115.05Z"/><path class="cls-3" d="M86.69,101.2S85,113.08,97.38,112"/><path class="cls-4" d="M186.4,123.73a1.12,1.12,0,0,0-1.54.35c-10.52,16.63-56.81,12.7-76.9,4.33-19.34-8.06-25.71-14.4-27.57-16.78,2.91-1.07,5.35-2,6.77-2.61a10.66,10.66,0,0,0,1.07,1.36,8.57,8.57,0,0,0,2,1.62,9.57,9.57,0,0,0,1.16.57,10.63,10.63,0,0,0,1.22.36,5.79,5.79,0,0,0,4.77-.74l.06-.07a.23.23,0,0,0-.08-.3h0a5.55,5.55,0,0,0-1.12-.48A7.43,7.43,0,0,0,95.2,111c-.68-.17-1.35-.27-2-.47a9.72,9.72,0,0,1-1.81-.65,5,5,0,0,1-1.54-1.08,6.32,6.32,0,0,1-.76-1,1,1,0,0,0,0-.81,1.12,1.12,0,0,0-.61-.6c-.11-.34-.22-.69-.32-1-.38-1.29-.67-2.63-1.27-4.15v0a.25.25,0,0,0-.08-.1.21.21,0,0,0-.28.06,6.41,6.41,0,0,0-.71,4.78,8.2,8.2,0,0,0,.32,1.07c-4.46,1.79-17.87,7-24.9,7.77-18.54,2.06-29.22-5-35.6-9.17-3.44-2.26-5.71-3.76-7.68-2.71a1.12,1.12,0,0,0,1.05,2c.62-.33,2.12.49,3.87,1.61a113.24,113.24,0,0,0,14.3,17.21c8.53,8.51,22.4,19.74,40,24.87a145,145,0,0,0,40.7,5.72q4.53,0,9.11-.27a155.66,155.66,0,0,0,43.25-8.8,1.12,1.12,0,1,0-.76-2.1c-29.21,10.56-62.63,11.76-91.68,3.3-17.15-5-30.69-16-39-24.27a122.14,122.14,0,0,1-10.85-12.4,49.13,49.13,0,0,0,26.64,7.63c2.05,2.34,12.91,13.75,36.51,22.76,11.56,4.42,25.65,6.75,40.39,6.75q4.41,0,8.87-.28c16.1-1,30.89-4.77,39.54-10.05a1.12,1.12,0,1,0-1.17-1.91c-17.41,10.62-58.25,14.32-86.84,3.4-19.68-7.52-30.45-16.91-34.29-20.75,1.25-.06,2.53-.16,3.86-.31,4.45-.49,11.12-2.6,16.72-4.59,1.67,2.43,7.93,9.31,28.91,18.05,10.61,4.42,27.76,7.39,42.69,7.39h0c18.67,0,31.79-4.48,36.92-12.59A1.09,1.09,0,0,0,186.4,123.73Z"/><g class="cls-8"><path class="cls-9" d="M183,130.43l-.1.17c-13.83,23-52.24,31.74-98,25.51-56.72-7.72-66.46-52-66.46-52s0-.06,0-.18a1.78,1.78,0,0,1,.69-.2,2,2,0,0,1,1.7.78C31.73,118,44.31,135.35,81.59,144.58a181.64,181.64,0,0,0,30.33,5,5.06,5.06,0,0,0,4.45-8c-6.78-9.3-5.61-21.81-5.61-21.81l21.48,6.1c1.41,3.13,2.42,6.73,3.8,12.42a50.42,50.42,0,0,0,3.39,9.29,2.31,2.31,0,0,1,.25.94c20-3.44,32.47-12.39,40-20.56A2.1,2.1,0,0,1,183,130.43Z"/></g><path class="cls-4" d="M112.47,159.28a205.91,205.91,0,0,1-27.73-2A92.71,92.71,0,0,1,50,145.78,73.63,73.63,0,0,1,29.45,128c-9.59-12.12-12.09-23.15-12.19-23.61l0-.2,0-.2a65.64,65.64,0,0,1,5.27-17.68C26.51,77.34,34.3,65,48.74,57c29-16.05,61-5.88,85.65,27.19,9.84,13.22,20.52,20.52,28.57,19.52,4.94-.62,8.84-4.33,11.61-11,5.62-13.61,10.25-17.88,13.14-19.06a4.1,4.1,0,0,1,3.07-.23l.66.28.08.71c.17,1.53,3.94,37.72-7.55,56.82-6.85,11.39-19.92,19.78-37.78,24.27A139.39,139.39,0,0,1,112.47,159.28ZM19.69,104a63.83,63.83,0,0,0,11.75,22.52C40,137.31,56.23,151,85.07,154.9c22.68,3.09,43.61,2.47,60.52-1.77,17.22-4.32,29.77-12.33,36.28-23.15,10-16.6,7.86-48,7.32-54.2-1.67.43-6.23,3-12.35,17.87-3.13,7.58-7.69,11.79-13.57,12.52-8.93,1.12-20.46-6.54-30.84-20.48-23.81-32-54.66-41.91-82.51-26.51-13.82,7.64-21.3,19.46-25.15,28A66.16,66.16,0,0,0,19.69,104Z"/><path class="cls-3" d="M110.78,117s-2.89,30.45,26.15,31.65a2.7,2.7,0,0,0,2.54-3.85,50.39,50.39,0,0,1-3.4-9.29,72.94,72.94,0,0,0-3.79-12.42"/><g class="cls-5"><path class="cls-6" d="M136.93,148.62c-19.38-.8-24.54-14.62-25.83-23.73,2.4,8.48,8.68,18.15,24.8,18.82a2.66,2.66,0,0,0,2.45-1.39c.37.89.75,1.72,1.1,2.46A2.69,2.69,0,0,1,136.93,148.62Z"/></g><path class="cls-4" d="M111.15,117a24,24,0,0,1,.79,4.58c.17,1.51.31,3,.54,4.52a28.84,28.84,0,0,0,1,4.41,32.91,32.91,0,0,0,1.69,4.18,22.62,22.62,0,0,0,5.42,7,22,22,0,0,0,3.64,2.55l1,.5a10.23,10.23,0,0,0,1,.47l1,.41.52.21.54.16a22.44,22.44,0,0,0,2.17.61c.74.15,1.46.36,2.22.44l1.12.16.56.08.57,0,1.13.08.57,0,.28,0h.17a1.53,1.53,0,0,0,1.14-.65,1.56,1.56,0,0,0,.25-1.3.75.75,0,0,0-.05-.16l0-.08,0-.1-.25-.54-.49-1.09c-.32-.73-.62-1.47-.91-2.21a47.59,47.59,0,0,1-1.52-4.55q-.17-.59-.3-1.17l-.28-1.13-.57-2.26c-.2-.75-.4-1.5-.61-2.24s-.48-1.47-.73-2.19a20.56,20.56,0,0,1-.64-2.2,8.09,8.09,0,0,1-.2-2.4h0a.42.42,0,0,1,.45-.39.46.46,0,0,1,.23.09,6,6,0,0,1,1.56,1.94,12.45,12.45,0,0,1,.88,2.23l1.22,4.59.58,2.28.28,1.14c.09.37.18.74.29,1.1a44.82,44.82,0,0,0,1.44,4.33c.28.71.57,1.42.88,2.12l.47,1,.24.52.07.16.08.19a2.91,2.91,0,0,1,.12.39,3.81,3.81,0,0,1-.59,3.16,3.74,3.74,0,0,1-2.8,1.58h-.41l-.31,0-.6,0-1.2-.09-.6-.05-.6-.09-1.2-.17c-.8-.09-1.59-.3-2.38-.47a23.92,23.92,0,0,1-2.34-.66l-.58-.18-.57-.22-1.14-.45c-.38-.14-.74-.34-1.11-.52l-1.1-.55a24.41,24.41,0,0,1-4-2.82,24.83,24.83,0,0,1-6-7.72,34.16,34.16,0,0,1-1.82-4.5c-.48-1.54-.85-3.11-1.19-4.68a24.78,24.78,0,0,1-.58-4.78,11.07,11.07,0,0,1,.79-4.79.39.39,0,0,1,.52-.2.42.42,0,0,1,.22.25Z"/><circle class="cls-10" cx="84.36" cy="89.19" r="6.36"/><g class="cls-11"><ellipse class="cls-6" cx="100.89" cy="190.26" rx="66.4" ry="6.87"/></g><path class="cls-12" d="M72.47,61.8C82.41,59,97.12,63.57,111.1,73.66s-1.19,6.41-12.41,1.57S54.77,66.81,72.47,61.8Z"/><path class="cls-13" d="M10.08,88.44a100.16,100.16,0,0,0-4,9.89c-1,3.27-1.69,6.65-1,9.41a19.51,19.51,0,0,0,1.81,4.47,47.54,47.54,0,0,0,2.7,4.42c1,1.43,2,2.85,3.18,4.19a25.53,25.53,0,0,0,3.55,3.63l.13.1a1.08,1.08,0,0,1-1,1.86,17.49,17.49,0,0,1-5-3.16,33.93,33.93,0,0,1-4.07-4.06,31.64,31.64,0,0,1-3.43-4.7A20.71,20.71,0,0,1,.4,108.87a14.9,14.9,0,0,1-.1-6.4A26.07,26.07,0,0,1,2.1,96.8a36,36,0,0,1,6.19-9.55,1.09,1.09,0,0,1,1.82,1.17Z"/><path class="cls-14" d="M172.58,155.13c2.64-1.92,5.41-3.54,7.95-5.29a34.15,34.15,0,0,0,6.73-5.86,30.78,30.78,0,0,0,4.61-7.58c1.23-2.8,2.21-5.78,3.38-8.82l1,.15a31.68,31.68,0,0,1-1.1,9.84,23,23,0,0,1-4.74,9.08,25,25,0,0,1-8.16,6.13A44.26,44.26,0,0,1,173,156Z"/><path class="cls-14" d="M77.44.71h0a9,9,0,0,0-9,9v4.73h4V9.58a4.92,4.92,0,0,1,4.92-4.92h0a4.92,4.92,0,0,1,4.92,4.92v4.83h4V9.68A9,9,0,0,0,77.44.71Z"/><rect class="cls-15" x="68.48" y="12.91" width="4.05" height="1.63"/><rect class="cls-15" x="82.36" y="12.91" width="4.05" height="1.63"/><path class="cls-15" d="M82.36,8a4.92,4.92,0,0,0-9.84,0V9.58a4.92,4.92,0,0,1,9.84,0Z"/><path class="cls-16" d="M87.65,14.41H67.25a2.2,2.2,0,0,0-2.2,2.2V32a2.2,2.2,0,0,0,2.2,2.2H87.66a2.2,2.2,0,0,0,2.2-2.2V16.61A2.22,2.22,0,0,0,87.65,14.41ZM78.32,26.93a1.58,1.58,0,0,1-3.16,0V22.2a1.58,1.58,0,0,1,3.16,0Z"/><path class="cls-17" d="M70,16.72H89.85v-.11a2.2,2.2,0,0,0-2.2-2.2H67.24a2.21,2.21,0,0,0-2.2,2.2V32a2.2,2.2,0,0,0,2.2,2.2h.51V18.92A2.21,2.21,0,0,1,70,16.72Z"/><path class="cls-18" d="M87.65,14.41H84.21a2.2,2.2,0,0,1,2.2,2.2V32a2.2,2.2,0,0,1-2.2,2.2h3.44a2.2,2.2,0,0,0,2.2-2.2V16.61A2.2,2.2,0,0,0,87.65,14.41Z"/><path class="cls-19" d="M89.85,16.61a2.21,2.21,0,0,0-1.26-2,2.13,2.13,0,0,0-.94-.22H86.41v-1.5h0V9.68a9,9,0,0,0-17.94,0v3.23h0v1.5H67.23a2.16,2.16,0,0,0-1.23.38,2.78,2.78,0,0,0-.33.27A2.19,2.19,0,0,0,65,16.62V32a2.21,2.21,0,0,0,2.2,2.2H87.65a2.26,2.26,0,0,0,1.06-.28,3.31,3.31,0,0,0,.5-.36.21.21,0,0,0,0-.06,2.18,2.18,0,0,0,.6-1.5V16.61Zm-17.32-7a4.83,4.83,0,0,1,.39-1.91,4.94,4.94,0,0,1,2.62-2.62,4.87,4.87,0,0,1,3.82,0,4.92,4.92,0,0,1,3,4.53v4.83H72.53V9.58Zm5.79,17.35a1.58,1.58,0,0,1-3.16,0V22.2a1.58,1.58,0,0,1,3.16,0Z"/></g></g></svg>