<svg xmlns="http://www.w3.org/2000/svg" viewBox="0 0 258.52 158.9"><defs><style>.cls-1{opacity:0.15;}.cls-2{fill:#b68a6d;}.cls-10,.cls-3{fill:#139090;}.cls-20,.cls-3{opacity:0.45;isolation:isolate;}.cls-4{opacity:0.35;}.cls-5{fill:#e63a42;}.cls-6{fill:#f8bd8b;}.cls-7{fill:#c79a72;}.cls-8{fill:#2d2d2d;}.cls-20,.cls-9{fill:#fff;}.cls-11{fill:#167677;}.cls-12{fill:#e7344e;}.cls-13{fill:#4f2e15;}.cls-14{fill:#f6c017;}.cls-15{fill:#f4951e;}.cls-16{fill:#ea8c94;}.cls-17{fill:#e5e5e4;}.cls-18{fill:#e62e38;}.cls-19{fill:#fece4a;}</style></defs><g id="Layer_2" data-name="Layer 2"><g id="Layer_1-2" data-name="Layer 1"><g class="cls-1"><path class="cls-2" d="M220.89,10.16a2.06,2.06,0,0,1-2.52-1.45l-.25-.92a2.06,2.06,0,1,1,4-1.06l.25.92A2.06,2.06,0,0,1,220.89,10.16Z"/><path class="cls-2" d="M236.26,29a2,2,0,0,1-1.56-.21l-.82-.47a2.06,2.06,0,0,1,2.06-3.56l.82.47a2.06,2.06,0,0,1-.5,3.77Z"/><path class="cls-2" d="M236.31,19.13l-.92.25a2.06,2.06,0,0,1-1.07-4l.92-.25a2.06,2.06,0,0,1,1.07,4Z"/><path class="cls-2" d="M230,12.28a2,2,0,0,1-1.56-.21,2.06,2.06,0,0,1-.75-2.81l.47-.82a2.06,2.06,0,0,1,3.56,2.06l-.47.82A2.06,2.06,0,0,1,230,12.28Z"/></g><path class="cls-3" d="M35.27,39.61h-3A4.29,4.29,0,0,1,28,35.32v-3a4.29,4.29,0,0,1,4.29-4.29h3a4.29,4.29,0,0,1,4.29,4.29v3A4.28,4.28,0,0,1,35.27,39.61Z"/><g class="cls-4"><path class="cls-5" d="M9.74,85.31H6.12A6.13,6.13,0,0,1,0,79.18V75.56a6.13,6.13,0,0,1,6.12-6.12H9.74a6.13,6.13,0,0,1,6.12,6.12v3.62A6.12,6.12,0,0,1,9.74,85.31ZM6.41,72.23a3.62,3.62,0,0,0-3.62,3.62V78.9a3.62,3.62,0,0,0,3.62,3.62H9.46a3.62,3.62,0,0,0,3.62-3.62V75.85a3.63,3.63,0,0,0-3.62-3.62Z"/></g><path class="cls-6" d="M69,63s-.49,15.08-2.42,21.83L51.3,95.48l57.49,8.6L95.08,85.14s-4.14-20.21-2-27.69S69,63,69,63Z"/><path class="cls-7" d="M68.91,65.08S73.46,76,82,75.78s10.51-9.92,10.51-9.92Z"/><path class="cls-8" d="M63.8,56.22s-2.76-13.8-4.69-18S55.57,15.4,77,14.43c0,0,8.2,1,12.7-1.77,0,0,0,2.73-1.13,3.7A14.22,14.22,0,0,1,101.72,21c5.79,6.43-3.86,28.94-3.38,34.25Z"/><path class="cls-6" d="M81,71.56c-6.2-.11-17.62-8.37-17.62-18.6V37c0-3.74,2.61-6.79,5.79-6.79H92.88c3.18,0,5.79,3.06,5.79,6.79V52.05C98.66,62.78,88.15,71.68,81,71.56Z"/><path class="cls-8" d="M63.41,45.52s0-9.59,7.63-11.07,24.6,4.67,27-2.32-32.87-6.87-34.65-2.41S63.41,45.52,63.41,45.52Z"/><path class="cls-9" d="M112.3,130.52H46.64c-.12,0,8-42.27,8.66-42.51h0a55.44,55.44,0,0,1,9.24-2.5h0c1.32-.25,2.77-.48,4.32-.67,0,.22,5.4,9.89,11.8,11,4-1.93,7.11-3.57,11.46-10.66,1.44.21,2.91.45,4.41.73a106,106,0,0,1,11.54,2.87l1.44.45h0l.57.18s.05.24.16,1.69h0C110.55,94.35,111.14,103.79,112.3,130.52Z"/><path class="cls-10" d="M37.21,99.1,25.54,130.52H64c.19-13.61.33-25.45.42-33.57,0-3.59.06-6.44.08-8.41s0-3,0-3h0c-1.67.24-7,.91-12.08,1.56A18.7,18.7,0,0,0,37.21,99.1Z"/><polyline class="cls-11" points="45 130.55 51.93 110.37 53.19 130.55"/><path class="cls-10" d="M111.53,89.39a9.06,9.06,0,0,0-1.85-.63h0a93.7,93.7,0,0,0-12.14-2.88h0c0,.12,0,2.57,0,6.8h0c0,2.71.05,6.16.08,10.19.06,7.5.15,17,.27,27.65h19.49c.31,0,.61,0,.91,0,8.07-.46,14.79-7,16.94-15.89C123.56,96.43,115.2,91,111.53,89.39Z"/><path class="cls-12" d="M96,44.73a4.2,4.2,0,0,0-3.32-1.41h-7A3.08,3.08,0,0,0,83,44.45a2.54,2.54,0,0,0-.39,1.15h0a6.44,6.44,0,0,0-3.09.06h0a2.63,2.63,0,0,0-.4-1.21,3.07,3.07,0,0,0-2.75-1.13h-7a4.21,4.21,0,0,0-3.32,1.41,3.56,3.56,0,0,0-.65,3.07c.79,3.94,5.33,4.44,7.6,4.44a12.11,12.11,0,0,0,1.27-.06c2.12,0,3.61-1.22,4.7-3.81a6.7,6.7,0,0,0,.53-2.14h0a6,6,0,0,1,3.07-.06h0a6.79,6.79,0,0,0,.53,2.2c1.08,2.59,2.58,3.8,4.7,3.81a12.11,12.11,0,0,0,1.27.06c2.27,0,6.8-.5,7.6-4.44A3.61,3.61,0,0,0,96,44.73ZM79,46.38a6.84,6.84,0,0,1-.48,1.82c-1,2.41-2.37,3.53-4.29,3.53h0a13.92,13.92,0,0,1-3.87-.18c-2.58-.53-4.1-1.82-4.51-3.84A3.14,3.14,0,0,1,66.4,45a3.77,3.77,0,0,1,3-1.24h7a2.66,2.66,0,0,1,2.37.93A2.11,2.11,0,0,1,79,45.8h0a4.23,4.23,0,0,0-.61.23.27.27,0,0,0-.14.36.28.28,0,0,0,.25.16l.11,0,.39-.15Zm17.19,1.33c-.41,2-1.93,3.31-4.51,3.84a13.85,13.85,0,0,1-3.86.18h0c-1.92,0-3.28-1.12-4.29-3.53a6.82,6.82,0,0,1-.48-1.87h0a3.52,3.52,0,0,1,.4.18.27.27,0,1,0,.26-.48,4.66,4.66,0,0,0-.66-.28h0a2.16,2.16,0,0,1,.33-1,2.68,2.68,0,0,1,2.37-.93h7a3.74,3.74,0,0,1,3,1.24A3.17,3.17,0,0,1,96.22,47.71Z"/><path class="cls-13" d="M89.65,12.67s0,2.73-1.13,3.7a11.42,11.42,0,0,1,2.39-.22A14.27,14.27,0,0,1,101.7,21c5,5.55-1.5,23.06-3.07,31.17a17.41,17.41,0,0,1-.31,3v.1h0a21.14,21.14,0,0,1-5.78,10.57,146.23,146.23,0,0,0,2.54,19.29l.4.55,1.11.18,1,.19v-.19h0a93.7,93.7,0,0,1,12.14,2.88h0a9.49,9.49,0,0,1,1.85.63c3.67,1.61,12,7,23.72,25.21-2.15,8.86-8.87,15.43-16.94,15.89-.3,0-.6,0-.91,0H45.19c-2.7-.13-5.78-.17-8.7-.17-5.82,0-11,.17-11,.17L37.05,99.19A18.67,18.67,0,0,1,52.2,87.11c5.18-.67,10.56-1.36,12.24-1.6h0v0h.1l1.35-.23.63-.44c1.49-5.22,2.12-15.41,2.33-19.77a19.48,19.48,0,0,1-5.09-8.84h0s-2.76-13.8-4.69-18-3.54-22.83,17.85-23.8a31,31,0,0,0,3.37.17c2.81,0,6.72-.35,9.35-1.95M93.07,6.6,87.88,9.75c-1.53.93-4.21,1.44-7.56,1.44-1.72,0-3-.14-3-.14l-.27,0h-.28c-11.25.51-16.63,5.57-19.16,9.73-4.45,7.32-3,15.9-1.63,18.91s3.7,13.49,4.45,17.23L61,59.74h.34a23.46,23.46,0,0,0,4.07,6.59,118.61,118.61,0,0,1-1.71,15.85c-1.6.22-5.71.76-11.93,1.56A22,22,0,0,0,33.87,98L22.35,129.35l-1.75,4.76,5.07-.17s5.16-.17,10.85-.17c3.32,0,6.18,0,8.51.16h72.39c.41,0,.78,0,1.14,0,9.42-.54,17.48-8,20-18.49l.35-1.42-.79-1.23c-12.05-18.71-21-24.63-25.22-26.49a13.46,13.46,0,0,0-2.36-.81,95.22,95.22,0,0,0-12.49-2.95,142.38,142.38,0,0,1-2-15.38A24.94,24.94,0,0,0,101,58.67l1.1,0-.28-3.27a20.19,20.19,0,0,0,.29-2.79c.34-1.7.92-3.92,1.54-6.25,2.69-10.27,5.75-21.92.66-27.58a17.76,17.76,0,0,0-11.19-5.88V6.6Z"/><path class="cls-8" d="M195.65,13.2h0a22.41,22.41,0,0,1,8.4-.25,27,27,0,0,1,11.23,4.25c4.33,2.92,10.58,9.24,3.59,26.55l-3.31,6c1.1,13,6.41,13,6.41,13a11.9,11.9,0,0,1-3.44,1.14s-1.64-.62-2-1.53a5.77,5.77,0,0,0,.74,1.87s-9,.85-13.5-2.55c-2.45-1.85-5.12-6.19-6.85-10.61l-6.81.48c-.07,2.93,1,6.28,4.25,9.78,0,0-8.4.82-11.25-1.5a7.77,7.77,0,0,0,1.08,1.64s-9.39.34-13.27-2.59S169.58,7.82,195.65,13.2Z"/><path class="cls-6" d="M163.1,120.38H235a66.09,66.09,0,0,0,1-14.59c-.39-5.8-8.37-11-11.39-15.27a52.28,52.28,0,0,0-11.07-11.24l-.42-.08c-.48-.08-1.3-.22-2.17-.29h0c-.83-.44-1.16-3.45-1.27-7,0-1,0-2,0-3s0-1.76,0-2.63l0-1.21c0-.11,0-.23,0-.34s0-.34,0-.5,0-.26,0-.38,0-.4,0-.59l0-.77c0-.06,0-.11,0-.16l0-.7c0-.28,0-.55,0-.8v-.2c0-.41,0-.8.06-1.14,0-.09,0-.19,0-.28s0-.21,0-.3,0-.19,0-.28c0-.29,0-.54.05-.73a.53.53,0,0,1,0-.13c0-.05,0-.09,0-.13s0-.28,0-.28l-11.23-2.22h0l-7.69-1.52-.9-.18-.23,0h0a67.79,67.79,0,0,1-.43,8,55.17,55.17,0,0,1-.94,5.64h0c-1.4,6.2-3.58,9.94-5.15,10.56h0l-.16.06C175.7,79.21,164.07,99.07,163.1,120.38Z"/><path class="cls-7" d="M210.1,57.36s-.43,6-.44,11.57c-10.59-.3-16.19-10-18.48-15.31Z"/><path class="cls-6" d="M213.63,62.67s-25,.41-25.07-15.19-3.26-26.06,12.73-27,19.11,5,20.38,10.24S220.15,62.16,213.63,62.67Z"/><path class="cls-8" d="M212.71,20.11s-6.86,18.31-17.39,21S180.23,41,180.23,41A29.82,29.82,0,0,0,190,23.41S207.53,11.39,212.71,20.11Z"/><path class="cls-8" d="M211,21.6s5.12,4.09,6.37,8.06,1.81,12.16,4.19,11.88c0,0,5.17-12.44-.64-19.48C214.77,14.58,211,21.6,211,21.6Z"/><path class="cls-8" d="M212,22.21s-4.89,19.17-18.17,25.31c0,0,13.28-11.78,14.41-24.44S212,22.21,212,22.21Z"/><path class="cls-14" d="M148.59,110.91c.43-1,.85-2,1.26-3,.21-.5.42-1,.62-1.47a.06.06,0,0,1,0,0c5.79-13.75,10.38-24.13,10.83-24.89,1.29-2.18,18.94-4.35,21.52-4.34,1.88,0,2.91-6.21,3.32-9.62a1.26,1.26,0,0,1,2-.89l.56.37.69.44.7.42.47.27.53.29.48.25.49.24.48.23.38.18.7.31.5.21.35.14c.64.25,1.29.48,1.93.69,5.38,1.77,10.41,1.93,13.31,1.25l.21,0a2,2,0,0,1,2.5,2.43c-.39,1.77-.49,3.7.51,4.68,4.48,1,15.39,3.78,17.43,7.66,1.47,2.78,7,19.17,7.81,33.73H153.66a22.07,22.07,0,0,1-6.88-1.09c-.5-.16-1-.34-1.46-.53Z"/><path class="cls-15" d="M172.57,120.38h10.6c-2.68-4.44-5.24-7.67-6.72-7.85C175.19,112.38,173.84,115.72,172.57,120.38Z"/><path class="cls-15" d="M182.83,77.17S196,85.54,206,83.56c0,0,2.4-1.52-.91-3-3.11-1.43-10.34-5.65-8.75-9.82a32.34,32.34,0,0,1-8.26-4,1.26,1.26,0,0,0-2,.89C185.74,71,184.71,77.17,182.83,77.17Z"/><path class="cls-13" d="M200.31,12.67a26.31,26.31,0,0,1,3.74.28,27,27,0,0,1,11.23,4.25,17.88,17.88,0,0,1,2.62,2.14,11.35,11.35,0,0,1,3,2.71c5.81,7,.64,19.48.64,19.48h0c-.62,6-1.95,12.83-3.95,17.08,1.92,4,4.36,4.06,4.36,4.06a11.9,11.9,0,0,1-3.44,1.14s-1.64-.63-2-1.53a5.77,5.77,0,0,0,.74,1.87s-1,.09-2.48.09a31.57,31.57,0,0,1-5.08-.39h0c0,.13,0,.26,0,.38s0,.33,0,.5,0,.22,0,.34l0,1.17v.05c0,.82,0,1.65,0,2.47v.14h0c0,1,0,2,0,3l.21,0a1.91,1.91,0,0,1,.52-.07,2,2,0,0,1,2,2.49c-.39,1.77-.49,3.7.51,4.68,4.48,1,15.39,3.78,17.43,7.66,1.47,2.78,7,19.17,7.81,33.73H153.68a22.07,22.07,0,0,1-6.88-1.09c-.5-.16-1-.34-1.46-.53,1.1-2.68,2.19-5.31,3.26-7.86.43-1,.85-2,1.26-3,.21-.5.42-1,.62-1.47a.06.06,0,0,1,0,0c5.79-13.75,10.38-24.13,10.83-24.89,1.29-2.18,18.82-4.34,21.5-4.34h0c.48,0,.9-.4,1.27-1.06a20,20,0,0,0,1.64-5.75c.17-1,.31-2,.41-2.81a1.23,1.23,0,0,1,.38-.74l.09-.09.1-.06a.75.75,0,0,1,.17-.1,1.18,1.18,0,0,1,.53-.12,1.23,1.23,0,0,1,.7.22h0l.55.34a54.74,54.74,0,0,0,.94-5.62h0c-2.4-.1-5.08-.48-6.46-1.61a7.77,7.77,0,0,0,1.08,1.64h-.89c-2.43,0-9.23-.22-12.38-2.6-3.67-2.78-1.63-46,20.75-46a19.09,19.09,0,0,1,3.94.42,21.78,21.78,0,0,1,4.63-.49m0-3.41h0a24,24,0,0,0-4.71.45,22.77,22.77,0,0,0-3.89-.35c-9.93,0-17.82,7.21-22.2,20.29a69.92,69.92,0,0,0-3.38,19c-.38,10.5,1.91,12.23,2.77,12.88,3.79,2.87,10.68,3.29,14.44,3.29h.37a4.65,4.65,0,0,0-1,2.27c-.11.92-.25,1.84-.39,2.67a22.61,22.61,0,0,1-1,4c-2.35.18-6.48.67-10.42,1.33-10.13,1.69-11.7,3.09-12.61,4.61-.67,1.13-5.84,13-10.89,25l-.28.4-.05.41-.07.16-.37.88-.79,1.89-.47,1.12c-1.07,2.55-2.16,5.19-3.27,7.88l-1.3,3.17,3.18,1.29c.56.23,1.13.43,1.7.62a25.49,25.49,0,0,0,7.93,1.25h88.08l-.2-3.6c-.82-15-6.57-32-8.2-35.13-1.87-3.55-7.85-6.56-17.8-9,0-.27.08-.62.17-1a5.48,5.48,0,0,0-1.09-4.61,5.61,5.61,0,0,0-1.58-1.34V68.8c0-.39,0-.79,0-1.18.58,0,1.16,0,1.76,0,1.6,0,2.68-.1,2.79-.11l6.91-.64-1.09-1.17h0l13-6.4-14.15-.08a2.79,2.79,0,0,1-.89-.87c2.13-5.47,3.12-12.64,3.49-16.06,1.09-2.92,4.94-14.82-1.35-22.45A15.11,15.11,0,0,0,220,16.62a21,21,0,0,0-2.82-2.26,30.75,30.75,0,0,0-12.72-4.81,31.38,31.38,0,0,0-4.15-.29Z"/><path class="cls-6" d="M126.87,92.6s-.42,13.14-2.11,19l-13.31,9.29,50.1,7.5-12-16.51S146,94.29,147.88,87.78,126.87,92.6,126.87,92.6Z"/><path class="cls-16" d="M126.8,94.42s4,9.54,11.42,9.33,9.16-8.65,9.16-8.65Z"/><path class="cls-13" d="M122.34,86.69s-2.41-12-4.09-15.68-3.08-19.9,15.56-20.74c0,0,7.15.84,11.07-1.54,0,0,0,2.38-1,3.22A12.39,12.39,0,0,1,155.39,56c5.05,5.61-3.36,25.23-2.94,29.85Z"/><path class="cls-6" d="M137.37,100.06C132,100,122,92.76,122,83.85V69.94c0-3.26,2.27-5.92,5-5.92h20.62c2.78,0,5,2.66,5,5.92V83.07C152.73,92.41,143.57,100.17,137.37,100.06Z"/><path class="cls-13" d="M122,77.36s0-8.36,6.65-9.65,21.44,4.08,23.54-2-28.65-6-30.2-2.1S122,77.36,122,77.36Z"/><path class="cls-9" d="M164,115.6h0a7,7,0,0,0-1.85-.58v0a101.39,101.39,0,0,0-13.35-2.94l-1.41-.2c-2.85,4.37-5.13,6.36-7.52,7.75-.53.31-1.07.59-1.62.85l-1.46.69a8,8,0,0,1-1.84-.53,10.58,10.58,0,0,1-1-.49c-4.59-2.5-8.05-8.38-8.05-8.54l-1.87.25a55.19,55.19,0,0,0-10.7,2.52h0c-.34,0-12.15,1.93-30.23,33.48,2.62,8.42,9.59,7.62,17.78,7.62h72.7a16.68,16.68,0,0,0,2.56-.2c7.14-1.12,13,0,15.3-7.68C177.65,123.62,167.85,117.27,164,115.6Z"/><polyline class="cls-17" points="105.67 155.49 112.59 135.31 113.85 155.49"/><polyline class="cls-17" points="170.47 155.49 163.55 135.31 162.29 155.49"/><path class="cls-18" d="M140.11,120.63c4.93-2,11.13-8.53,11.13-8.53A5.41,5.41,0,0,0,148.9,108l-7.28,8.36s0,0-.07,0a55.49,55.49,0,0,0-8.55.2l-7.53-8.07a5.33,5.33,0,0,0-2.86,3.45s6.33,6.5,11.82,8.64c.25.22.5.43.76.62h0c-.08.71-.21,1.83-.37,3.28-.79,7.15-2.45,15.63-3.81,31.08h11.51c-1.21-14.87-2.45-22.92-3.08-30.39-.13-1.54-.23-2.76-.3-3.61h0A7,7,0,0,0,140.11,120.63Z"/><path class="cls-13" d="M144.88,48.73s0,2.38-1,3.22a10.07,10.07,0,0,1,2.09-.19A12.46,12.46,0,0,1,155.4,56c4.35,4.84-1.31,20.1-2.67,27.17a14.77,14.77,0,0,1-.27,2.59v.09h0a18.31,18.31,0,0,1-5,9.21A109.37,109.37,0,0,0,148.9,108a5.4,5.4,0,0,1,2.34,4.14l-.35.36a101.57,101.57,0,0,1,11.2,2.58v0a7,7,0,0,1,1.85.58h0c3.9,1.66,13.69,8,27.39,32-2.29,7.65-8.16,6.56-15.3,7.68a16.68,16.68,0,0,1-2.56.2h-72.7l-3.79,0c-6.5,0-11.79-.56-14-7.64,18.08-31.55,29.9-33.43,30.23-33.48h0a55.21,55.21,0,0,1,9.54-2.33l-.18-.19a5.34,5.34,0,0,1,2.85-3.45,132.83,132.83,0,0,0,1.34-14,16.91,16.91,0,0,1-4.43-7.7h0s-2.41-12-4.09-15.67-3.08-19.9,15.56-20.74a28.55,28.55,0,0,0,2.94.14c2.41,0,5.82-.3,8.12-1.7m3.42-6.07-5.19,3.15A13.38,13.38,0,0,1,136.75,47c-1.47,0-2.53-.12-2.54-.12l-.27,0h-.28c-10,.45-14.8,5-17.06,8.69a20,20,0,0,0-1.45,16.9c1.1,2.39,2.94,10.41,3.84,14.91l.56,2.8h.35a20.66,20.66,0,0,0,3.4,5.48c-.15,2.68-.45,7-1,10.75a8.75,8.75,0,0,0-2.27,2.68,55,55,0,0,0-7.68,2c-3.06.62-15.06,5-32.33,35.09l-.74,1.29.44,1.42c3.13,10,12,10,17.25,10h76.49a19.81,19.81,0,0,0,3.09-.24c1.23-.19,2.46-.32,3.65-.44,5.57-.57,11.87-1.21,14.39-9.63l.42-1.4-.73-1.27c-13.52-23.69-23.65-31-28.67-33.31l-.61-.43h-.43a10.39,10.39,0,0,0-2-.54c-2.76-.79-5.58-1.47-8.39-2a8.86,8.86,0,0,0-2.19-3.42c-.46-2.84-.95-6.45-1.18-9.85a22.2,22.2,0,0,0,4.16-7.1l1.07,0L155.86,86a19.12,19.12,0,0,0,.25-2.42c.3-1.47.8-3.37,1.33-5.39,2.38-9.06,5.07-19.34.47-24.44a15.94,15.94,0,0,0-9.63-5.22V42.66Z"/><path class="cls-15" d="M41.28,57.78h0s-1.79-2.16-2.65-2.45a.07.07,0,0,0-.08,0l-.18-.14a3.94,3.94,0,0,0-.48-.31,18.93,18.93,0,0,0-2.61-1.62l-.91-.46c-.39-.19-.78-.35-1.18-.53a6.22,6.22,0,0,0-1.11-.43,24.06,24.06,0,0,0-2.86-1l-1-.27c-.21-.06-.42-.1-.63-.14-.44-.13-.89-.25-1.33-.39a.27.27,0,0,0-.15,0,.21.21,0,0,0,0,.15l0,1.39c0,.21,0,.43-.05.64l0,1a23.23,23.23,0,0,0,.07,3,6.8,6.8,0,0,0,.08,1.19c.05.43.08.86.15,1.28s.11.67.16,1a18,18,0,0,0,.76,3,4.94,4.94,0,0,0,.15.55c.06.18.13.35.2.53s.12.27.17.41a20.75,20.75,0,0,0,3,5.43A24.55,24.55,0,0,0,33,72.35a19.79,19.79,0,0,0,4.19,3.38,8,8,0,0,0,1.1.53l0,0h0l.36.11c2,.62,2.71.71,6.59-.14,2-3.44,2.11-4.18,2.11-6.24v-.38h0a8.55,8.55,0,0,0-.17-1.25,19.29,19.29,0,0,0-2-5,24.29,24.29,0,0,0-1.87-3A25.37,25.37,0,0,0,41.28,57.78ZM39,69.9l-.2-.13A1.13,1.13,0,0,1,39,69.9Z"/><path class="cls-14" d="M28.46,63.25c3.1,1.62,6.27,3.1,9.33,4.77.1,0,.19.18.35.08l-.23-.31-5.55-7.57c-.18-.25-.31-.48-.68-.25-.16.1-.38,0-.56,0s-.49-.21-.73-.33l-3.9-2c-.12-.06-.23-.18-.38-.1.05.43.08.86.15,1.28s.11.67.16,1a18,18,0,0,0,.76,3A3.21,3.21,0,0,1,28.46,63.25Z"/><path class="cls-14" d="M38.72,69.71c-1.21-.73-2.48-1.38-3.75-2-2.17-1.08-4.34-2.14-6.44-3.36-.31-.18-.56-.52-1-.5.06.14,1.61,4.1,2.63,5.06,1.58,1.49,5,5.33,9.36,6.1a4,4,0,0,0,1.68-.34c.07-1.47-.33-3.68-1.1-4.06A12.24,12.24,0,0,1,38.72,69.71Z"/><path class="cls-14" d="M41.23,67.87c-.34-1.38-.58-2.78-.79-4.18-.37-2.39-.74-4.79-1.28-7.15-.08-.35-.33-.69-.18-1.09.11.1,3.43,2.76,4,4,.95,2,3.58,6.36,3,10.76a3.89,3.89,0,0,1-.83,1.5c-1.42-.37-3.41-1.42-3.54-2.26A11,11,0,0,0,41.23,67.87Z"/><path class="cls-14" d="M26.47,56.46c1.18.62,2.36,1.24,3.55,1.85.43.22.87.41,1.31.62a.43.43,0,0,0,0-.07l-5.3-7.22c0,.21,0,.43-.05.64l0,1a23.23,23.23,0,0,0,.07,3C26.21,56.28,26.34,56.39,26.47,56.46Z"/><path class="cls-14" d="M38,56.27c.61,3.44,1.07,6.91,1.75,10.33,0,.11.11.24,0,.36l-.23-.31c-1.85-2.52-3.7-5.05-5.56-7.56-.18-.25-.36-.44,0-.72a.63.63,0,0,0,.12-.54c0-.27-.05-.53-.09-.79-.24-1.44-.49-2.88-.74-4.31,0-.13-.11-.27,0-.4.39.17.79.34,1.18.53l.91.46a17.18,17.18,0,0,1,2.61,1.62A3,3,0,0,0,38,56.27Z"/><path class="cls-14" d="M32.1,52.33c.23,1.31.48,2.63.7,3.94.08.47.13.95.2,1.43l-.08,0-5.3-7.22.63.14,1,.27a22.39,22.39,0,0,1,2.86,1C32,52,32.07,52.18,32.1,52.33Z"/><path class="cls-13" d="M36.46,52.2a36,36,0,0,0-8.63-3.27,4.44,4.44,0,0,0-2.5-.13l-.1.07-.1.07a4.4,4.4,0,0,0-.63,2.43A36.55,36.55,0,0,0,25,60.59a24.64,24.64,0,0,0,5.38,11.09l.33.42.12.16a27.37,27.37,0,0,0,2.35,2.35c.2.14.39.3.58.46a12.85,12.85,0,0,0,3.33,2.18,9.82,9.82,0,0,0,1.49.45.62.62,0,0,1,.27.13h0l.24,0A10.05,10.05,0,0,0,40.3,78a23.78,23.78,0,0,0,6.1-.31A23.71,23.71,0,0,0,48.52,72a10.45,10.45,0,0,0,.21-1.14l0-.24v0a.54.54,0,0,1,0-.29,9,9,0,0,0,0-1.56,12.52,12.52,0,0,0-1.08-3.83,5.8,5.8,0,0,1-.27-.69,26.79,26.79,0,0,0-1.54-2.95l-.12-.16c-.1-.15-.21-.29-.3-.44A24.62,24.62,0,0,0,36.46,52.2ZM45.3,63.37a19.65,19.65,0,0,1,2,5,6.49,6.49,0,0,1,.17,1.71h0a7,7,0,0,1-.18,1.23,23.78,23.78,0,0,1-1.93,4.94,23.34,23.34,0,0,1-5.29.36,7.35,7.35,0,0,1-1.23-.2h0a6.39,6.39,0,0,1-1.58-.68A19.79,19.79,0,0,1,33,72.36a24.55,24.55,0,0,1-2.3-2.69,21.08,21.08,0,0,1-3-5.43c-.06-.14-.12-.27-.17-.41s-.14-.35-.2-.53a4.94,4.94,0,0,1-.15-.55,18,18,0,0,1-.76-3c-.06-.34-.11-.67-.16-1s-.1-.85-.15-1.28a6.8,6.8,0,0,1-.08-1.19,23.27,23.27,0,0,1-.07-3l0-1c0-.21,0-.43.05-.64l0-1.39a.27.27,0,0,1,0-.15.2.2,0,0,1,.15,0l1.33.39.63.14,1,.27a22.39,22.39,0,0,1,2.86,1,7.08,7.08,0,0,1,1.11.43c.39.17.79.34,1.18.53l.91.46a17.18,17.18,0,0,1,2.61,1.62,3.56,3.56,0,0,1,.48.31l.44.35.34.29a21.25,21.25,0,0,1,4.28,4.5A24.29,24.29,0,0,1,45.3,63.37Z"/><path class="cls-18" d="M245.12,95.11c-.43-1-.84-1.93-1.19-2.93a41,41,0,0,1-1.86-7.72,22.44,22.44,0,0,1-.2-4.41,19.22,19.22,0,0,1,.32-2.72,24.37,24.37,0,0,1,.81-2.64,13.82,13.82,0,0,1,.49-1.36A7.85,7.85,0,0,1,244.73,71c.34-.5.77-1,1.09-1.48a7.67,7.67,0,0,1,.64-.86l.23-.27a27.91,27.91,0,0,1,2.38-2.72l.48-.49.85-.85a35.85,35.85,0,0,1,2.68-2.4l.28-.25.09-.09c.26-.29.41-.26.58.11.42,1,.83,1.91,1.17,2.9A40.26,40.26,0,0,1,257,72.27a21.11,21.11,0,0,1-1.1,10.12A19.84,19.84,0,0,1,252.74,88l-.17.21-.23.27A28.91,28.91,0,0,1,250,91.16l-.47.49c-.27.29-.55.57-.83.85a35.13,35.13,0,0,1-2.64,2.39l-.27.25-.08.09C245.44,95.51,245.29,95.48,245.12,95.11Z"/><path class="cls-5" d="M252.76,64a42.69,42.69,0,0,1-1.09,4.6c-.45,1.59-1,3.13-1.58,4.69,0,.09-.05.2-.17.2s-.16-.08-.2-.17c-.15-.31-.33-.61-.5-.91-.74-1.31-1.58-2.56-2.43-3.81A27.3,27.3,0,0,1,249.08,66l.46-.48a37.3,37.3,0,0,1,3.4-3.13A6.93,6.93,0,0,1,252.76,64Z"/><path class="cls-5" d="M246.19,69.8c.33.5.67,1,1,1.51.68,1.11,1.35,2.24,2,3.35a.49.49,0,0,1,0,.59c-.15.23-.23.51-.36.76a12,12,0,0,1-1.56,2.47c-.15.18-.22.16-.35,0s-.5-.59-.75-.89c-.93-1.12-1.85-2.25-2.88-3.27a10.22,10.22,0,0,1,.61-1.57,16.7,16.7,0,0,1,2-3.06A.29.29,0,0,1,246.19,69.8Z"/><path class="cls-5" d="M243.18,75.81c1,1.19,2,2.38,3,3.56.18.21.14.32,0,.49a2.24,2.24,0,0,0-.76,1.55.8.8,0,0,1-.3.55,5.16,5.16,0,0,0-.88.93c-.28.47-.28.61.08,1-.13.21-.27.21-.46,0a4,4,0,0,0-.57-.44.42.42,0,0,1-.18-.54,11,11,0,0,0,.34-1.61,13.42,13.42,0,0,0-.34-4.19c0-.26-.11-.51-.14-.77a2.25,2.25,0,0,1,0-.58l0-.2C243.07,75.65,243.12,75.74,243.18,75.81Z"/><path class="cls-13" d="M240.64,83.83a22.06,22.06,0,0,1-.08-2.93c0-.56.12-1.08.19-1.63a13.36,13.36,0,0,1,.26-1.9c.17-.61.2-1.28.33-1.9a18.87,18.87,0,0,1,.58-2.08,13,13,0,0,1,1.52-2.79c.62-1,1.28-1.9,2-2.8A42,42,0,0,1,249.78,63c.79-.75,1.61-1.48,2.45-2.18l1.23-1c.31-.25.74-.78,1-.22a43,43,0,0,1,2.72,7.19,35.15,35.15,0,0,1,1.31,7.25,34.07,34.07,0,0,1-.58,6.68A15.48,15.48,0,0,1,255.81,86c-.09.16-.18.32-.28.47a44.71,44.71,0,0,1-10.18,10.77l-.25.2a.39.39,0,0,1-.19.1c-.3,0-.68-1.13-.79-1.36-.26-.56-.51-1.13-.74-1.7q-.69-1.71-1.23-3.48a38.44,38.44,0,0,1-1.47-6.71C240.67,84.13,240.65,84,240.64,83.83Zm5.14,11,.08-.09c1.73-1.68,3.6-3.19,5.22-5A24,24,0,0,0,255,83.79a20.19,20.19,0,0,0,1.77-11.48A38.08,38.08,0,0,0,255,64.93c-.33-1-.72-1.88-1.13-2.8-.26-.58-.63,0-.95.23s-.92.79-1.36,1.2A57,57,0,0,0,247,68.34,22.79,22.79,0,0,0,244.34,72a19.59,19.59,0,0,0-2,6.81c-.64,4.4.3,9,1.74,13.17.33.95.72,1.88,1.13,2.8C245.38,95.09,245.53,95.11,245.78,94.83Z"/><path class="cls-11" d="M228.37,134.09c.25.58-1.62,8-7.68,11.16s-16.85,1.45-16.85,1.45a24,24,0,0,1,11.23-8.95A65.36,65.36,0,0,1,228.37,134.09Z"/><path class="cls-10" d="M215.08,137.75a68.51,68.51,0,0,1,12.51-3.54c-2.23,2.68-9.76,8.79-21.82,10A24.27,24.27,0,0,1,215.08,137.75Z"/><path class="cls-13" d="M212.3,138.13s2.61-1.09,3.89-1.6a65.24,65.24,0,0,1,8.15-2.9,30.1,30.1,0,0,1,4.91-.8c.36,0,.42.07.41.42a10.06,10.06,0,0,1-.94,3.88,24,24,0,0,1-4.22,6.66l-.17.18c-.11.15-.4.25-.31.43l0,0h-.25c-2.76,2.66-12.43,4.94-21.82,3.05-.15-.58,3.29-5.23,10-9.14Zm-7.55,8.4c.22.27,1,.16,1.31.17.56,0,1.12,0,1.68,0a57.08,57.08,0,0,0,8.46-.86,27.25,27.25,0,0,0,3.2-.81,9.63,9.63,0,0,0,2.68-1.14,9.82,9.82,0,0,0,2.17-2.33,22.61,22.61,0,0,0,2.08-3.3,35,35,0,0,0,1.52-3.43c.06-.14.06-.25-.15-.21-1,.22-2,.33-3,.57a50.71,50.71,0,0,0-6.56,2.35c-1.47.59-3,1.11-4.38,1.82a30.51,30.51,0,0,0-4.18,2.52,29.8,29.8,0,0,0-3.48,2.87,10.75,10.75,0,0,0-1.07,1.17c-.12.13-.37.39-.31.6Z"/><g class="cls-4"><path class="cls-9" d="M138.52,32.88a6.16,6.16,0,0,1-4.38-1.81h0l-2.3-2.3a6.2,6.2,0,0,1,0-8.77l2.3-2.3a6.18,6.18,0,0,1,8.76,0l2.3,2.3a6.2,6.2,0,0,1,0,8.77l-2.3,2.3A6.16,6.16,0,0,1,138.52,32.88Zm-2.25-4a3.17,3.17,0,0,0,4.49,0l2.3-2.3a3.17,3.17,0,0,0,0-4.49l-2.3-2.3a3.25,3.25,0,0,0-4.49,0l-2.3,2.3a3.17,3.17,0,0,0,0,4.49Z"/><path class="cls-19" d="M154.76,17a6.14,6.14,0,0,1-4.38-1.81l-2.3-2.3a6.18,6.18,0,0,1,0-8.76l2.3-2.3a6.2,6.2,0,0,1,8.77,0l2.3,2.3a6.2,6.2,0,0,1,0,8.77l-2.3,2.3A6.22,6.22,0,0,1,154.76,17Zm0-14a3.14,3.14,0,0,0-2.24.93l-2.3,2.3a3.16,3.16,0,0,0,0,4.48h0l2.3,2.3A3.17,3.17,0,0,0,157,13l2.3-2.3a3.17,3.17,0,0,0,0-4.49L157,3.94A3.2,3.2,0,0,0,154.76,3Z"/><path class="cls-10" d="M122.36,17A6.16,6.16,0,0,1,118,15.19l-2.3-2.3a6.2,6.2,0,0,1,0-8.77l2.3-2.3a6.18,6.18,0,0,1,8.76,0l2.3,2.3a6.2,6.2,0,0,1,0,8.77l-2.3,2.3A6.14,6.14,0,0,1,122.36,17Zm-4.55-6.26,2.3,2.3a3.17,3.17,0,0,0,4.49,0l2.3-2.3a3.17,3.17,0,0,0,0-4.49L124.6,4a3.25,3.25,0,0,0-4.49,0l-2.3,2.3a3.19,3.19,0,0,0,0,4.49Z"/></g><path class="cls-20" d="M71.49,146.63c-.18.41-4.88,3-9.4,1.34s-8.75-8-8.75-8a16.79,16.79,0,0,1,9.95,1.54A44.72,44.72,0,0,1,71.49,146.63Z"/></g></g></svg>