<svg xmlns="http://www.w3.org/2000/svg" xmlns:xlink="http://www.w3.org/1999/xlink" viewBox="0 0 218.87 196.45"><defs><style>.cls-1{fill:#e62e38;}.cls-2{fill:#e63a42;}.cls-3{fill:#4f2e15;}.cls-4{fill:#f4951e;}.cls-5{fill:#f6c017;}.cls-6{opacity:0.2;}.cls-7{fill:#fff;}.cls-8{fill:#139090;}.cls-9{fill:#f6c712;}.cls-10{opacity:0.3;}.cls-11{opacity:0.45;}.cls-12{opacity:0.6;}.cls-13{fill:url(#linear-gradient);}.cls-14{fill:url(#linear-gradient-2);}.cls-15{fill:url(#linear-gradient-3);}</style><linearGradient id="linear-gradient" x1="111.67" y1="685.85" x2="110.39" y2="787.09" gradientTransform="matrix(1, 0, 0, -1, 0, 910.33)" gradientUnits="userSpaceOnUse"><stop offset="0.04" stop-color="#f6c017"/><stop offset="1" stop-color="#f6c017" stop-opacity="0"/></linearGradient><linearGradient id="linear-gradient-2" x1="279.16" y1="688.01" x2="150.42" y2="803.62" xlink:href="#linear-gradient"/><linearGradient id="linear-gradient-3" x1="-10627.73" y1="693.66" x2="-10718.34" y2="775.03" gradientTransform="translate(-10656.1 910.33) rotate(180)" xlink:href="#linear-gradient"/></defs><g id="Layer_2" data-name="Layer 2"><g id="Layer_1-2" data-name="Layer 1"><path class="cls-1" d="M168.8,107.35c1.26-.19,2.51-.41,3.75-.7a49.77,49.77,0,0,0,9.06-3.13,27.59,27.59,0,0,0,4.62-2.67,24.32,24.32,0,0,0,2.56-2.09,28.86,28.86,0,0,0,2.15-2.54c.37-.45.73-.9,1.06-1.38a9.52,9.52,0,0,0,1.55-2.78c.29-.67.48-1.41.79-2.07a8.85,8.85,0,0,0,.46-1.21l.12-.41a34,34,0,0,0,1.22-4.19c.07-.27.13-.54.19-.81.11-.47.21-.94.31-1.41a41.2,41.2,0,0,0,.69-4.29c0-.15,0-.3.08-.44l0-.15c.13-.46,0-.59-.49-.52-1.25.19-2.49.4-3.71.7a48.93,48.93,0,0,0-9,3.14,25.48,25.48,0,0,0-9.57,7.71A23.77,23.77,0,0,0,171.1,95l-.1.3c0,.14-.09.27-.13.41a33.51,33.51,0,0,0-1.24,4.15l-.2.8c-.11.47-.22.93-.32,1.4a40.32,40.32,0,0,0-.71,4.24c0,.15-.05.29-.08.44a.57.57,0,0,1,0,.14C168.18,107.29,168.31,107.42,168.8,107.35Z"/><path class="cls-2" d="M195.46,79.33a54.88,54.88,0,0,0-4,4.1c-1.32,1.49-2.52,3.08-3.74,4.66-.07.09-.17.18-.09.3s.19.11.31.1c.42,0,.84-.06,1.25-.08,1.82-.1,3.63-.06,5.45,0a33.89,33.89,0,0,0,1.18-4l.18-.78a44.25,44.25,0,0,0,1-5.5A9.25,9.25,0,0,0,195.46,79.33Z"/><path class="cls-2" d="M193.84,89.79c-.72,0-1.45,0-2.17,0-1.58,0-3.15.08-4.73.13a.58.58,0,0,0-.62.36,7.73,7.73,0,0,1-.54.86,13.92,13.92,0,0,0-1.49,3.2c-.08.27,0,.33.24.35.46,0,.93.12,1.39.18,1.74.22,3.49.42,5.2.8A11.58,11.58,0,0,0,192.31,94a20.32,20.32,0,0,0,1.8-4A.29.29,0,0,0,193.84,89.79Z"/><path class="cls-2" d="M189.69,96.76c-1.86-.24-3.72-.47-5.57-.72-.34-.05-.41.06-.48.35a2.7,2.7,0,0,1-1.08,1.78,1,1,0,0,0-.36.67,6,6,0,0,1-.38,1.5c-.3.59-.44.68-1.11.59-.13.27,0,.42.24.5a5.69,5.69,0,0,1,.82.29.5.5,0,0,0,.67-.17,12.42,12.42,0,0,1,1.42-1.39,16.36,16.36,0,0,1,4.48-2.38,9.37,9.37,0,0,0,.87-.36,3.19,3.19,0,0,0,.6-.38l.18-.16C189.92,96.77,189.79,96.78,189.69,96.76Z"/><path class="cls-3" d="M183.18,104.57a25.14,25.14,0,0,0,3-1.83c.55-.39,1-.82,1.54-1.26a15.93,15.93,0,0,0,1.77-1.5c.5-.57,1.17-1,1.71-1.58A24.78,24.78,0,0,0,193,96.46a15.23,15.23,0,0,0,1.84-3.36q.87-1.89,1.56-3.84a51.43,51.43,0,0,0,2-7.54c.25-1.3.46-2.6.63-3.91.08-.64.16-1.28.23-1.91.05-.47.31-1.26-.43-1.17a53.23,53.23,0,0,0-9.09,1.91A41.25,41.25,0,0,0,181.51,80,42.09,42.09,0,0,0,175.09,85a18.83,18.83,0,0,0-4,5.58l-.3.59c-2.56,5.45-3.69,11.41-4.33,17.36,0,.13,0,.25,0,.38a.46.46,0,0,0,0,.26c.16.32,1.6,0,1.9-.08.74-.1,1.48-.22,2.21-.35,1.46-.27,2.91-.61,4.34-1a45.68,45.68,0,0,0,7.78-2.88A4,4,0,0,0,183.18,104.57Zm-14.53,1.93,0-.14c.58-2.85.9-5.74,1.69-8.56a29,29,0,0,1,3.52-7.8,24.41,24.41,0,0,1,10.52-9.27,46.37,46.37,0,0,1,8.64-3c1.18-.28,2.38-.49,3.58-.67.75-.12.45.62.39,1.12q-.15,1.08-.33,2.16a71,71,0,0,1-1.9,7.74,27.85,27.85,0,0,1-1.94,5,23.57,23.57,0,0,1-5.63,6.44c-4.05,3.51-9.36,5.56-14.52,6.8-1.18.28-2.38.49-3.58.67C168.65,107.07,168.53,106.93,168.65,106.5Z"/><path class="cls-4" d="M184.34,60.41c-.72-.21-9,3.09-11.8,10.61s.86,19.79.86,19.79a28.1,28.1,0,0,0,8.7-14.4A75.55,75.55,0,0,0,184.34,60.41Z"/><path class="cls-5" d="M182.1,76.41a80.5,80.5,0,0,0,2.22-15.07c-2.77,3-8.74,12.68-8.31,26.87A28.73,28.73,0,0,0,182.1,76.41Z"/><path class="cls-3" d="M182.08,79.7s.87-3.2,1.27-4.76A76,76,0,0,0,185.49,65a34.33,34.33,0,0,0,.19-5.82c0-.43-.15-.48-.55-.41a11.79,11.79,0,0,0-4.37,1.68,28,28,0,0,0-7.1,5.91,1.37,1.37,0,0,1-.19.22c-.16.15-.23.5-.45.43l0,0c0,.09,0,.19.05.29-2.68,3.6-3.86,15.19-.23,25.81.7.08,5.58-4.61,9.1-13Q182,79.9,182.08,79.7Zm-8.61,10c-.35-.22-.34-1.14-.39-1.5-.1-.65-.19-1.3-.26-1.95a66.27,66.27,0,0,1-.28-10,31,31,0,0,1,.46-3.84,11.35,11.35,0,0,1,.92-3.29,11.76,11.76,0,0,1,2.38-2.88,26.61,26.61,0,0,1,3.52-2.92,39.86,39.86,0,0,1,3.75-2.28c.16-.09.29-.1.27.15-.1,1.18-.08,2.36-.22,3.54a58.81,58.81,0,0,1-1.74,8c-.46,1.79-.85,3.61-1.45,5.37a34.85,34.85,0,0,1-2.3,5.24,35.61,35.61,0,0,1-2.8,4.47,13.55,13.55,0,0,1-1.19,1.42c-.16.15-.42.49-.67.45Z"/><g class="cls-6"><ellipse class="cls-7" cx="109.43" cy="190.55" rx="56.99" ry="5.9"/></g><rect class="cls-8" x="149.32" y="49.37" width="13.7" height="8.36" transform="translate(8.42 127.22) rotate(-45.43)"/><rect class="cls-8" x="57.68" y="47.16" width="8.36" height="13.7" transform="translate(-20.11 58.94) rotate(-44.57)"/><path class="cls-7" d="M109.43,34a16.24,16.24,0,1,1,16.25-16.24A16.27,16.27,0,0,1,109.43,34Zm0-30.1A13.86,13.86,0,1,0,123.3,17.79,13.88,13.88,0,0,0,109.43,3.93Z"/><path class="cls-7" d="M109.43,35.58a17.79,17.79,0,1,1,17.8-17.79A17.82,17.82,0,0,1,109.43,35.58Zm0-31.65A13.86,13.86,0,1,0,123.3,17.79,13.88,13.88,0,0,0,109.43,3.93Z"/><path class="cls-9" d="M113.48,24.48h-8.19a2.24,2.24,0,0,1-2.24-2.24V18.73a2.24,2.24,0,0,1,2.24-2.24h8.19a2.23,2.23,0,0,1,2.23,2.24v3.51A2.22,2.22,0,0,1,113.48,24.48Z"/><path class="cls-3" d="M113.48,26.37h-8.19a4.13,4.13,0,0,1-4.13-4.13V18.73a4.13,4.13,0,0,1,4.13-4.13h8.19a4.13,4.13,0,0,1,4.13,4.13v3.51A4.13,4.13,0,0,1,113.48,26.37Zm-8.19-8a.34.34,0,0,0-.34.34v3.51a.34.34,0,0,0,.34.34h8.19a.34.34,0,0,0,.34-.34V18.73a.34.34,0,0,0-.34-.34Z"/><rect class="cls-9" x="105.13" y="24.48" width="8.37" height="13.7"/><path class="cls-3" d="M113.49,40.06h-8.37a1.89,1.89,0,0,1-1.89-1.89V24.47a1.89,1.89,0,0,1,1.89-1.89h8.37a1.89,1.89,0,0,1,1.89,1.89v13.7A1.88,1.88,0,0,1,113.49,40.06ZM107,36.28h4.58V26.37H107Z"/><path class="cls-7" d="M156.56,44.24,165.42,53a2.22,2.22,0,0,0,3.14,0l4.35-4.41a2.22,2.22,0,0,0,0-3.14L164,36.67a2.22,2.22,0,0,0-3.14,0l-4.35,4.41A2.22,2.22,0,0,0,156.56,44.24Z"/><path class="cls-3" d="M166.63,54.06A3.64,3.64,0,0,1,164.05,53l-7.5-7.39h0a3.67,3.67,0,0,1,0-5.2l3.68-3.74a3.69,3.69,0,0,1,5.2,0l7.5,7.39a3.67,3.67,0,0,1,0,5.2L169.25,53A3.67,3.67,0,0,1,166.63,54.06Zm-4.16-15.9a.07.07,0,0,0-.06,0l-4.35,4.41a.09.09,0,0,0,0,.06.07.07,0,0,0,0,.06h0l8.86,8.73a.1.1,0,0,0,.13,0L171.4,47a.09.09,0,0,0,0-.06.07.07,0,0,0,0-.06l-8.86-8.73Z"/><path class="cls-7" d="M61.48,44.68l-8.86,8.73a2.22,2.22,0,0,1-3.14,0L45.13,49a2.22,2.22,0,0,1,0-3.14L54,37.11a2.22,2.22,0,0,1,3.14,0l4.35,4.41A2.22,2.22,0,0,1,61.48,44.68Z"/><path class="cls-3" d="M51.16,54.29a3.64,3.64,0,0,0,2.58-1.06l7.5-7.39h0a3.67,3.67,0,0,0,0-5.2L57.6,36.9a3.69,3.69,0,0,0-5.2,0l-7.5,7.39a3.67,3.67,0,0,0,0,5.2l3.68,3.74A3.67,3.67,0,0,0,51.16,54.29Zm4.16-15.9a.07.07,0,0,1,.06,0l4.35,4.41a.09.09,0,0,1,0,.06.07.07,0,0,1,0,.06h0l-8.86,8.73a.1.1,0,0,1-.13,0l-4.35-4.41a.09.09,0,0,1,0-.06.07.07,0,0,1,0-.06l8.86-8.73Z"/><ellipse class="cls-5" cx="109.43" cy="102.84" rx="67.76" ry="67.72"/><g class="cls-10"><path class="cls-3" d="M48.54,132.58c.12.25.24.5.37.74C48.79,133.07,48.67,132.83,48.54,132.58Z"/></g><g class="cls-10"><path class="cls-3" d="M47.94,131.31l.35.75Z"/></g><g class="cls-10"><path class="cls-3" d="M50.14,135.64c.13.24.27.48.41.72C50.41,136.12,50.27,135.88,50.14,135.64Z"/></g><g class="cls-10"><path class="cls-3" d="M49.16,133.8c.24.47.49.93.74,1.39C49.64,134.73,49.4,134.26,49.16,133.8Z"/></g><g class="cls-10"><path class="cls-3" d="M50.83,136.85l.42.71Z"/></g><g class="cls-10"><path class="cls-3" d="M61.33,150.53l.51.51Z"/></g><g class="cls-10"><path class="cls-3" d="M107.43,170.53h0Z"/></g><g class="cls-10"><path class="cls-3" d="M104.31,170.37l.37,0Z"/></g><g class="cls-10"><path class="cls-3" d="M102.46,170.2l.35,0Z"/></g><g class="cls-10"><path class="cls-3" d="M100.8,170l.5.06Z"/></g><g class="cls-10"><path class="cls-3" d="M60.86,150.05l-.51-.53Z"/></g><g class="cls-10"><path class="cls-3" d="M51.55,138.05c.14.24.29.47.43.7C51.83,138.52,51.69,138.28,51.55,138.05Z"/></g><g class="cls-10"><path class="cls-3" d="M105.83,170.46l.51,0Z"/></g><g class="cls-10"><path class="cls-3" d="M176.5,96.5a.31.31,0,0,0,0-.08S176.51,96.47,176.5,96.5Z"/></g><g class="cls-10"><path class="cls-3" d="M176.18,97.58a.24.24,0,0,0,0-.08A.19.19,0,0,1,176.18,97.58Z"/></g><g class="cls-10"><path class="cls-3" d="M52.18,139.07l.9,1.39Z"/></g><g class="cls-10"><path class="cls-3" d="M59.11,148.18l.77.84Z"/></g><g class="cls-10"><path class="cls-3" d="M58.06,147l.49.57Z"/></g><g class="cls-10"><path class="cls-3" d="M99.29,169.8l.47.07Z"/></g><g class="cls-10"><path class="cls-3" d="M175.84,98.66l0,0S175.84,98.64,175.84,98.66Z"/></g><g class="cls-10"><path class="cls-3" d="M53.41,140.94l.46.66Z"/></g><g class="cls-10"><path class="cls-3" d="M54.21,142.09c.15.22.31.43.47.65Z"/></g><g class="cls-10"><path class="cls-3" d="M57.15,145.92l.49.59Z"/></g><g class="cls-10"><path class="cls-3" d="M56.27,144.83l.49.6Z"/></g><g class="cls-10"><path class="cls-3" d="M55,143.22c.28.37.56.75.85,1.12C55.6,144,55.32,143.59,55,143.22Z"/></g><g class="cls-10"><path class="cls-3" d="M65.94,154.76l.51.42C66.27,155.05,66.11,154.9,65.94,154.76Z"/></g><g class="cls-10"><path class="cls-3" d="M73.73,160.4l.52.32Z"/></g><g class="cls-10"><path class="cls-3" d="M72.52,159.64,73,160Z"/></g><g class="cls-10"><path class="cls-3" d="M71,158.6l.44.3Z"/></g><g class="cls-10"><path class="cls-3" d="M69.73,157.72l.52.38Z"/></g><g class="cls-10"><path class="cls-3" d="M75,161.17l.49.29Z"/></g><g class="cls-10"><path class="cls-3" d="M76.66,162.13l.35.19A3.9,3.9,0,0,0,76.66,162.13Z"/></g><g class="cls-10"><path class="cls-3" d="M97.82,169.57l.11,0Z"/></g><g class="cls-10"><path class="cls-3" d="M77.92,162.8l.51.26Z"/></g><g class="cls-10"><path class="cls-3" d="M62.38,151.56l.73.7Z"/></g><g class="cls-10"><path class="cls-3" d="M68.57,156.86l.52.39Z"/></g><g class="cls-10"><path class="cls-3" d="M67.36,155.92l.54.42Q67.63,156.15,67.36,155.92Z"/></g><g class="cls-10"><path class="cls-3" d="M64.84,153.83l.53.46Z"/></g><g class="cls-10"><path class="cls-3" d="M63.78,152.88l.51.46Z"/></g><g class="cls-10"><path class="cls-3" d="M91.2,168.08l.35.1Z"/></g><g class="cls-10"><path class="cls-3" d="M89.64,167.62l.5.15Z"/></g><g class="cls-10"><path class="cls-3" d="M93,168.54l.4.1Z"/></g><g class="cls-10"><path class="cls-3" d="M94.4,168.88l.5.11Z"/></g><g class="cls-10"><path class="cls-3" d="M88.22,167.17l.48.16Z"/></g><g class="cls-10"><path class="cls-3" d="M95.91,169.21l.45.09Z"/></g><g class="cls-10"><path class="cls-3" d="M85,166l.46.18Z"/></g><g class="cls-10"><path class="cls-3" d="M82.3,164.91l.44.19Z"/></g><g class="cls-10"><path class="cls-3" d="M80.65,164.16l.38.18Z"/></g><g class="cls-10"><path class="cls-3" d="M83.64,165.48l.51.21Z"/></g><g class="cls-10"><path class="cls-3" d="M79.22,163.47l.51.25Z"/></g><g class="cls-10"><path class="cls-3" d="M86.84,166.7l.23.08Z"/></g><g class="cls-11"><path class="cls-7" d="M71.9,48A43.82,43.82,0,0,0,54.55,63.11c-7.2,10.81,1.68,13.55,16.23,0S78.57,44.47,71.9,48Z"/></g><g class="cls-11"><ellipse class="cls-7" cx="51.61" cy="81.05" rx="5.09" ry="3.36" transform="translate(-40.58 108.12) rotate(-73.87)"/></g><path class="cls-3" d="M109.43,172.69a69.85,69.85,0,1,1,69.89-69.85A70,70,0,0,1,109.43,172.69Zm0-135.45a65.59,65.59,0,1,0,65.63,65.59A65.69,65.69,0,0,0,109.43,37.24Z"/><g class="cls-12"><path class="cls-7" d="M66.94,60.12c-24.36,23.53-21.89,56.08,1.45,80.23s55.6,26.23,80,2.71,29.29-56.84,8-79.73c-12-12.9-29.66-16.36-46.92-16.44C93.78,46.81,78.52,48.93,66.94,60.12Zm83.72,77.51C131,161,96.25,164.21,73,144.73S46.94,90.49,66.6,67.09,121,40.51,144.22,60,170.31,114.23,150.66,137.63Z"/></g><ellipse class="cls-8" cx="109.43" cy="102.84" rx="55.99" ry="55.96"/><ellipse class="cls-7" cx="109.43" cy="102.84" rx="47.47" ry="47.44"/><path class="cls-3" d="M137,76.72a1.39,1.39,0,0,1-1-.42,1.43,1.43,0,0,1,0-2L143.27,67a1.42,1.42,0,0,1,2,2L138,76.3A1.41,1.41,0,0,1,137,76.72Z"/><path class="cls-3" d="M146.88,93.54a1.41,1.41,0,0,1-1.36-1,1.43,1.43,0,0,1,1-1.76l9.91-2.83a1.42,1.42,0,0,1,.79,2.73l-9.91,2.83A1.44,1.44,0,0,1,146.88,93.54Z"/><path class="cls-3" d="M157.22,116.19a1.32,1.32,0,0,1-.34,0l-10-2.5a1.42,1.42,0,1,1,.69-2.75l10,2.5a1.42,1.42,0,0,1-.35,2.79Z"/><path class="cls-3" d="M144.26,139.07a1.39,1.39,0,0,1-1-.42L136,131.37a1.42,1.42,0,0,1,2-2l7.29,7.28a1.43,1.43,0,0,1-1,2.43Z"/><path class="cls-3" d="M121.84,151.9a1.41,1.41,0,0,1-1.37-1.06l-2.6-10a1.42,1.42,0,1,1,2.75-.71l2.6,10a1.42,1.42,0,0,1-1,1.73A2.33,2.33,0,0,1,121.84,151.9Z"/><path class="cls-3" d="M96.24,151.69a1.65,1.65,0,0,1-.38-.05,1.42,1.42,0,0,1-1-1.75L97.63,140a1.42,1.42,0,0,1,2.74.76l-2.76,9.92A1.43,1.43,0,0,1,96.24,151.69Z"/><path class="cls-3" d="M74.6,139.07a1.39,1.39,0,0,1-1-.42,1.43,1.43,0,0,1,0-2l7.29-7.28a1.42,1.42,0,1,1,2,2l-7.29,7.28A1.43,1.43,0,0,1,74.6,139.07Z"/><path class="cls-3" d="M61.5,115.64a1.42,1.42,0,0,1-.33-2.8l10-2.38a1.42,1.42,0,1,1,.66,2.76l-10,2.38A1.86,1.86,0,0,1,61.5,115.64Z"/><path class="cls-3" d="M71.9,93.82a1.65,1.65,0,0,1-.38,0L61.59,91a1.42,1.42,0,1,1,.76-2.74L72.28,91a1.42,1.42,0,0,1-.38,2.79Z"/><path class="cls-3" d="M81.88,76.72a1.39,1.39,0,0,1-1-.42L73.59,69a1.42,1.42,0,0,1,2-2l7.29,7.28a1.43,1.43,0,0,1,0,2A1.38,1.38,0,0,1,81.88,76.72Z"/><path class="cls-3" d="M99,66.74a1.43,1.43,0,0,1-1.37-1L94.9,55.78A1.42,1.42,0,0,1,97.64,55l2.75,9.92a1.42,1.42,0,0,1-1,1.75A1.58,1.58,0,0,1,99,66.74Z"/><path class="cls-3" d="M119.05,66.53a1.39,1.39,0,0,1-.35,0,1.41,1.41,0,0,1-1-1.73l2.54-10a1.42,1.42,0,1,1,2.75.71l-2.54,10A1.44,1.44,0,0,1,119.05,66.53Z"/><path class="cls-3" d="M109.43,160.68a57.85,57.85,0,1,1,57.88-57.85A57.93,57.93,0,0,1,109.43,160.68Zm0-111.91a54.07,54.07,0,1,0,54.09,54.07A54.13,54.13,0,0,0,109.43,48.77Z"/><path class="cls-3" d="M109.43,150.45a47.61,47.61,0,1,1,47.64-47.61A47.68,47.68,0,0,1,109.43,150.45Zm0-94.89a47.27,47.27,0,1,0,47.3,47.27A47.34,47.34,0,0,0,109.43,55.56Z"/><path class="cls-3" d="M109.43,150.45a47.61,47.61,0,1,1,47.64-47.61A47.68,47.68,0,0,1,109.43,150.45Zm0-94.89a47.27,47.27,0,1,0,47.3,47.27A47.34,47.34,0,0,0,109.43,55.56Z"/><circle class="cls-2" cx="109.43" cy="102.84" r="6.28"/><path class="cls-3" d="M109.43,109.28a6.45,6.45,0,1,1,4.56-1.89A6.43,6.43,0,0,1,109.43,109.28Zm0-12.55a6.11,6.11,0,1,0,4.32,1.79A6.1,6.1,0,0,0,109.43,96.73Z"/><path class="cls-3" d="M109.43,110.53a7.7,7.7,0,1,1,5.45-2.25A7.67,7.67,0,0,1,109.43,110.53Zm0-12.55a4.85,4.85,0,1,0,3.43,1.42A4.85,4.85,0,0,0,109.43,98Z"/><path class="cls-3" d="M69.35,103.94a1.42,1.42,0,0,1,0-2.84l51.52-.31h0a1.42,1.42,0,0,1,0,2.84l-51.53.31Z"/><polygon class="cls-3" points="109.68 99.68 109.63 99.73 109.68 99.77 109.68 99.68"/><path class="cls-3" d="M132.85,80.09a2.36,2.36,0,0,0-3.35,0S113.57,96,109.68,99.69c-2.39,2.26.63,5.47,3.24,3.57s19.93-19.82,19.93-19.82A2.38,2.38,0,0,0,132.85,80.09Z"/><path class="cls-8" d="M109.43,157.31a54.48,54.48,0,1,1,54.51-54.48A54.56,54.56,0,0,1,109.43,157.31Zm0-101.36a46.88,46.88,0,1,0,46.91,46.88A46.95,46.95,0,0,0,109.43,56Z"/><path class="cls-3" d="M109.43,150.52a47.69,47.69,0,1,1,47.71-47.69A47.75,47.75,0,0,1,109.43,150.52Zm0-92.46a44.78,44.78,0,1,0,44.8,44.78A44.84,44.84,0,0,0,109.43,58.06Z"/><g class="cls-11"><path class="cls-13" d="M166.43,190.55c0,3.26-25.52,5.9-57,5.9s-57-2.64-57-5.9C52.45,188.62-.08,85.89,0,47.31c.06-26.58,219.8-25.69,218.87,1.57C217.54,87.17,166.43,188.65,166.43,190.55Z"/></g><path class="cls-14" d="M154,29.7S113.69,194.57,114.33,195c9.71.08,23.34-.74,23.34-.74L205,35.12Z"/><path class="cls-15" d="M60,81.41,89.1,194.55S74,194,67.64,192.89C67.22,191.92,25.3,85.1,25.3,85.1Z"/><g class="cls-6"><ellipse class="cls-7" cx="109.43" cy="190.55" rx="49.41" ry="4.39"/></g></g></g></svg>