<svg xmlns="http://www.w3.org/2000/svg" xmlns:xlink="http://www.w3.org/1999/xlink" viewBox="0 0 167.1 192.23"><defs><style>.cls-1,.cls-17{fill:none;}.cls-2{clip-path:url(#clip-path);}.cls-3{fill:url(#linear-gradient);}.cls-12,.cls-4{fill:#139090;}.cls-5{fill:#f4951e;}.cls-10,.cls-6{fill:#f6c017;}.cls-7{fill:#4f2e15;}.cls-8{fill:#e62e38;}.cls-9{fill:#e63a42;}.cls-10,.cls-11,.cls-12,.cls-13,.cls-16{fill-rule:evenodd;}.cls-11{fill:#0c8181;}.cls-13{fill:#ffd258;}.cls-14{fill:#fff;}.cls-15,.cls-16{fill:#ffd577;}.cls-17{stroke:#4f2e15;stroke-miterlimit:10;stroke-width:1.71px;}.cls-18{fill:url(#linear-gradient-2);}.cls-19{fill:url(#linear-gradient-3);}.cls-20{fill:url(#linear-gradient-4);}.cls-21{opacity:0.25;}.cls-22{fill:url(#radial-gradient);}.cls-23{fill:url(#radial-gradient-2);}</style><clipPath id="clip-path" transform="translate(1.47)"><circle class="cls-1" cx="81.78" cy="98.89" r="81.78"/></clipPath><linearGradient id="linear-gradient" x1="81.78" y1="-382.38" x2="81.78" y2="-497.56" gradientTransform="matrix(1, 0, 0, -1, 0, -312.94)" gradientUnits="userSpaceOnUse"><stop offset="0" stop-color="#31b3b1" stop-opacity="0"/><stop offset="0.71" stop-color="#149192" stop-opacity="0.96"/><stop offset="0.81" stop-color="#169394" stop-opacity="0.64"/><stop offset="0.88" stop-color="#1d9a9a" stop-opacity="0.39"/><stop offset="0.95" stop-color="#27a6a5" stop-opacity="0.17"/><stop offset="1" stop-color="#31b3b1" stop-opacity="0"/></linearGradient><linearGradient id="linear-gradient-2" x1="81.77" y1="-409.12" x2="81.77" y2="-496.82" gradientTransform="matrix(1, 0, 0, -1, 0, -312.94)" gradientUnits="userSpaceOnUse"><stop offset="0" stop-color="#31b3b1"/><stop offset="1" stop-color="#31b3b1" stop-opacity="0"/></linearGradient><linearGradient id="linear-gradient-3" x1="81.38" y1="-460.34" x2="82.18" y2="-506.4" gradientTransform="matrix(1, 0, 0, -1, 0, -312.94)" gradientUnits="userSpaceOnUse"><stop offset="0" stop-color="#5fbdc1"/><stop offset="1" stop-color="#31b3b1" stop-opacity="0"/></linearGradient><linearGradient id="linear-gradient-4" x1="60.11" y1="-405.51" x2="60.36" y2="-463.89" gradientTransform="matrix(1, 0, 0, -1, 0, -312.94)" gradientUnits="userSpaceOnUse"><stop offset="0" stop-color="#fff"/><stop offset="1" stop-color="#31b3b1" stop-opacity="0"/></linearGradient><radialGradient id="radial-gradient" cx="100.57" cy="-468.3" r="25.81" gradientTransform="matrix(1, 0, 0, -1, 0, -312.94)" gradientUnits="userSpaceOnUse"><stop offset="0" stop-color="#fff"/><stop offset="1" stop-color="#fff"/></radialGradient><radialGradient id="radial-gradient-2" cx="42.41" cy="-479.35" r="19.84" gradientTransform="matrix(1, 0, 0, -1, 0, -312.94)" gradientUnits="userSpaceOnUse"><stop offset="0" stop-color="#fff"/><stop offset="1" stop-color="#fff" stop-opacity="0.5"/></radialGradient></defs><g id="Layer_2" data-name="Layer 2"><g id="Layer_1-2" data-name="Layer 1"><g class="cls-2"><path class="cls-3" d="M157,104l-.06,0c-4.75-1.81.47-7,.47-7-4.84-.18-7,5.24-12.82,5.92C140,99.12,150,92,150,92c-11.94-2.22-15.66,9.5-19.11,12.54S111,103.11,92,93c-19.37-10.36-54.15,10.35-63.76,8.7-6.78-1.17-8.87-3-9.8-7.32s3.4-7.28,4.14-5.73c-1.92-4.92-9.9-1.58-10.9,5a10.61,10.61,0,0,0,0,4.59c-1.56-.46-4.73-5.56-4.07-8.36.42-1.78-5.85,9.09-7.67,5.48-1.34,4.31-1.46,90.15-1.46,90.15H165V107.38A43.61,43.61,0,0,0,157,104Z" transform="translate(1.47)"/></g><path class="cls-4" d="M139.32,83.63c-1.21,0,0-5,3.8-9.34,6-7,15.92-13.07,17.63-6,1,4.06-2.42,5.38-10.25,7.77C141.39,78.88,140.54,83.67,139.32,83.63Z" transform="translate(1.47)"/><path class="cls-4" d="M21.72,103.81c-7-3.21-9.45-21.51-4.06-22.84s7.46,6.1,5.92,9.55C19.91,98.79,23.43,104.61,21.72,103.81Z" transform="translate(1.47)"/><path class="cls-5" d="M33.08,28.3h0s-1.95-2.36-2.89-2.66a.08.08,0,0,0-.09,0l-.2-.15a4.13,4.13,0,0,0-.52-.33,19.76,19.76,0,0,0-2.84-1.76c-.33-.17-.66-.34-1-.5s-.85-.38-1.28-.57a7.39,7.39,0,0,0-1.21-.47,24.72,24.72,0,0,0-3.11-1.05l-1.05-.29-.68-.16L16.76,20a.34.34,0,0,0-.17,0,.24.24,0,0,0,0,.16l0,1.51c0,.23-.05.46-.05.7s0,.73,0,1.09a25.66,25.66,0,0,0,.07,3.28,7,7,0,0,0,.09,1.3c.05.47.09.93.16,1.39s.11.73.18,1.1a18.35,18.35,0,0,0,.83,3.24c0,.2.1.4.16.6s.14.39.22.58l.19.45a23.17,23.17,0,0,0,3.28,5.92,26.75,26.75,0,0,0,2.5,2.92,21.28,21.28,0,0,0,4.56,3.68,7.74,7.74,0,0,0,1.2.57l.05,0h0l.4.13c2.14.67,3,.77,7.17-.15,2.15-3.75,2.3-4.55,2.3-6.79v-.42h0a7.55,7.55,0,0,0-.19-1.36,21,21,0,0,0-2.14-5.46,29.1,29.1,0,0,0-4.38-6.12ZM30.6,41.5l-.22-.15A1.43,1.43,0,0,1,30.6,41.5Z" transform="translate(1.47)"/><path class="cls-6" d="M19.13,34.26C22.5,36,26,37.63,29.29,39.45c.11.06.21.19.38.09l-.25-.34-6-8.24c-.2-.27-.34-.52-.74-.27a.68.68,0,0,1-.6-.05c-.27-.11-.53-.23-.79-.36L17,28.11c-.13-.07-.25-.2-.42-.11.05.47.09.93.16,1.39s.11.73.18,1.1a18.35,18.35,0,0,0,.83,3.24A3.38,3.38,0,0,1,19.13,34.26Z" transform="translate(1.47)"/><path class="cls-6" d="M30.3,41.3c-1.32-.8-2.7-1.5-4.08-2.19-2.36-1.17-4.73-2.33-7-3.66-.34-.2-.61-.57-1.07-.55.06.15,1.75,4.46,2.86,5.51,1.72,1.62,5.44,5.8,10.19,6.64A4.36,4.36,0,0,0,33,46.68c.07-1.6-.36-4-1.19-4.42A14.59,14.59,0,0,1,30.3,41.3Z" transform="translate(1.47)"/><path class="cls-6" d="M33,39.29c-.37-1.5-.63-3-.87-4.55-.41-2.6-.81-5.21-1.39-7.78-.09-.38-.36-.75-.2-1.18.12.1,3.73,3,4.4,4.38,1,2.13,3.9,6.93,3.27,11.72a4.26,4.26,0,0,1-.91,1.64c-1.54-.41-3.72-1.55-3.86-2.46A11.22,11.22,0,0,0,33,39.29Z" transform="translate(1.47)"/><path class="cls-6" d="M17,26.87l3.86,2c.47.24.95.45,1.42.67l0-.07-5.77-7.86c0,.23-.05.46-.05.7s0,.73,0,1.09a25.66,25.66,0,0,0,.07,3.28C16.68,26.67,16.81,26.8,17,26.87Z" transform="translate(1.47)"/><path class="cls-6" d="M29.49,26.66c.67,3.74,1.17,7.52,1.9,11.25,0,.12.12.26,0,.39L31.11,38q-3-4.12-6.05-8.23c-.2-.27-.4-.48,0-.79.16-.13.15-.39.13-.59s-.06-.58-.1-.86c-.26-1.57-.54-3.13-.8-4.7,0-.14-.12-.29,0-.43.43.19.86.37,1.28.57l1,.5a19.76,19.76,0,0,1,2.84,1.76A3.32,3.32,0,0,0,29.49,26.66Z" transform="translate(1.47)"/><path class="cls-6" d="M23.09,22.37c.25,1.43.52,2.86.77,4.29.09.52.14,1,.22,1.56l-.08,0-5.77-7.86c.23.05.46.09.68.16l1.05.29a26.44,26.44,0,0,1,3.11,1.05C23,22.05,23.06,22.21,23.09,22.37Z" transform="translate(1.47)"/><path class="cls-7" d="M27.84,22.23a39.58,39.58,0,0,0-9.4-3.56,4.77,4.77,0,0,0-2.72-.14l-.11.08-.11.08a4.88,4.88,0,0,0-.69,2.64,39.22,39.22,0,0,0,.58,10,26.79,26.79,0,0,0,5.86,12.07l.36.46.13.18a29.39,29.39,0,0,0,2.56,2.56c.22.15.42.33.63.5a13.86,13.86,0,0,0,3.63,2.37,10.52,10.52,0,0,0,1.63.49.56.56,0,0,1,.29.14h0l.26,0a11.72,11.72,0,0,0,1.25.16A25.93,25.93,0,0,0,38.66,50,25.91,25.91,0,0,0,41,43.78a10.44,10.44,0,0,0,.23-1.24l0-.26v0a.54.54,0,0,1,0-.32,10.72,10.72,0,0,0,0-1.7A13.8,13.8,0,0,0,40,36.06a6.83,6.83,0,0,1-.29-.75,31.64,31.64,0,0,0-1.67-3.21l-.13-.18c-.11-.16-.23-.32-.33-.48A27,27,0,0,0,27.84,22.23Zm9.62,12.16a21,21,0,0,1,2.14,5.46,7.17,7.17,0,0,1,.19,1.86h0a7.37,7.37,0,0,1-.2,1.34,25.23,25.23,0,0,1-2.1,5.37,25.32,25.32,0,0,1-5.76.39,7.65,7.65,0,0,1-1.34-.22h0a6.77,6.77,0,0,1-1.72-.74,21,21,0,0,1-4.56-3.68,25.69,25.69,0,0,1-2.5-2.92,23,23,0,0,1-3.28-5.92l-.19-.45c-.08-.19-.15-.38-.22-.58a3.77,3.77,0,0,1-.16-.6,20,20,0,0,1-.83-3.24c-.07-.37-.12-.73-.18-1.1s-.11-.93-.16-1.39a8,8,0,0,1-.09-1.3,25.66,25.66,0,0,1-.07-3.28c0-.36,0-.73,0-1.09s0-.46.05-.7c0-.5,0-1,0-1.51a.28.28,0,0,1,0-.16.21.21,0,0,1,.17,0l1.45.42c.23.05.46.09.68.16l1.05.29a26.44,26.44,0,0,1,3.11,1.05,7.39,7.39,0,0,1,1.21.47c.43.19.86.37,1.28.57l1,.5a18.91,18.91,0,0,1,2.84,1.76,5.69,5.69,0,0,1,.52.33c.17.12.33.25.48.38l.37.32a23.29,23.29,0,0,1,4.66,4.9A27.78,27.78,0,0,1,37.46,34.39Z" transform="translate(1.47)"/><path class="cls-8" d="M126.33,55.35c0-1.09.07-2.17.18-3.25a42.67,42.67,0,0,1,1.65-8,23.73,23.73,0,0,1,1.75-4.2,20.75,20.75,0,0,1,1.49-2.4,23.9,23.9,0,0,1,1.92-2.1c.34-.36.68-.72,1.05-1a8.2,8.2,0,0,1,2.18-1.62c.54-.32,1.14-.56,1.67-.9a7.55,7.55,0,0,1,1-.52l.34-.15a30.4,30.4,0,0,1,3.41-1.5l.66-.25c.39-.14.77-.29,1.16-.42,1.17-.41,2.35-.77,3.55-1.06l.37-.11.12,0c.37-.16.5-.06.49.36,0,1.08-.07,2.15-.18,3.22a41.29,41.29,0,0,1-1.67,7.93A21.6,21.6,0,0,1,142,48.22a20.47,20.47,0,0,1-5.4,3.81l-.25.12-.33.15a28.19,28.19,0,0,1-3.37,1.51l-.65.25-1.15.43a35.52,35.52,0,0,1-3.51,1.07l-.36.11-.12,0C126.45,55.87,126.32,55.78,126.33,55.35Z" transform="translate(1.47)"/><path class="cls-9" d="M147.1,29.69a44.51,44.51,0,0,1-3,3.81c-1.12,1.28-2.33,2.47-3.53,3.68-.07.07-.13.16-.24.11s-.11-.15-.12-.25c0-.36,0-.71-.07-1.07-.12-1.55-.35-3.08-.6-4.62a28.26,28.26,0,0,1,3.29-1.44l.64-.24A38.09,38.09,0,0,1,148,28.24,7.1,7.1,0,0,1,147.1,29.69Z" transform="translate(1.47)"/><path class="cls-9" d="M138.42,32.22c.08.61.18,1.22.25,1.84.15,1.34.28,2.68.41,4a.5.5,0,0,1-.23.56,8.49,8.49,0,0,0-.67.55,12.3,12.3,0,0,1-2.54,1.62c-.22.1-.27.06-.32-.17-.08-.39-.21-.77-.31-1.16-.38-1.45-.74-2.9-1.25-4.31A10.1,10.1,0,0,1,135,34a17.36,17.36,0,0,1,3.22-2A.28.28,0,0,1,138.42,32.22Z" transform="translate(1.47)"/><path class="cls-9" d="M133,36.51c.41,1.54.8,3.09,1.23,4.63.08.28,0,.36-.25.44a2.25,2.25,0,0,0-1.38,1.11.88.88,0,0,1-.52.38,5,5,0,0,0-1.23.49c-.47.32-.52.45-.38,1-.21.14-.35.08-.45-.15a4.22,4.22,0,0,0-.34-.67.44.44,0,0,1,.07-.59,9.65,9.65,0,0,0,1-1.36,13.74,13.74,0,0,0,1.52-4.06,7.51,7.51,0,0,1,.21-.78,3,3,0,0,1,.25-.55l.12-.17A.43.43,0,0,1,133,36.51Z" transform="translate(1.47)"/><path class="cls-7" d="M127.09,42.87a21.3,21.3,0,0,1,1.21-2.77c.27-.51.58-1,.89-1.44A14.32,14.32,0,0,1,130.27,37c.43-.49.74-1.1,1.14-1.62a19.41,19.41,0,0,1,1.45-1.68,13.55,13.55,0,0,1,2.64-1.93c1-.63,2-1.21,3.08-1.74a44.09,44.09,0,0,1,6.16-2.54q1.6-.52,3.24-1l1.59-.41c.39-.1,1-.4,1,.24a44.46,44.46,0,0,1-.62,7.9,35.57,35.57,0,0,1-2,7.33,35.67,35.67,0,0,1-3.47,6,16.16,16.16,0,0,1-4.28,4l-.47.32a46.24,46.24,0,0,1-14.21,5.58l-.32.08a.41.41,0,0,1-.22,0c-.29-.1-.14-1.36-.14-1.62,0-.64,0-1.28,0-1.91.07-1.27.2-2.53.38-3.78a39.66,39.66,0,0,1,1.58-6.9C127,43.17,127,43,127.09,42.87Zm0,12.52.11,0c2.35-.81,4.76-1.4,7.06-2.38a24.86,24.86,0,0,0,6.21-3.84,20.76,20.76,0,0,0,6.68-9.93,39.89,39.89,0,0,0,1.61-7.65c.11-1,.15-2.07.18-3.1,0-.65-.57-.31-1-.2-.6.16-1.2.33-1.8.52a59.36,59.36,0,0,0-6.34,2.46,23.43,23.43,0,0,0-4.06,2.2,20.13,20.13,0,0,0-4.83,5.48c-2.52,3.82-3.67,8.54-4.15,13-.11,1-.15,2.07-.18,3.1C126.58,55.45,126.71,55.54,127.07,55.39Z" transform="translate(1.47)"/><path class="cls-5" d="M164.34,37c.25.58-1.62,8-7.68,11.16s-16.85,1.45-16.85,1.45a24,24,0,0,1,11.23-9A64.56,64.56,0,0,1,164.34,37Z" transform="translate(1.47)"/><path class="cls-6" d="M151,40.68a68.51,68.51,0,0,1,12.51-3.54c-2.23,2.68-9.76,8.79-21.82,10A24.43,24.43,0,0,1,151,40.68Z" transform="translate(1.47)"/><path class="cls-7" d="M148.27,41.06s2.61-1.09,3.89-1.6a65.24,65.24,0,0,1,8.15-2.9,30.1,30.1,0,0,1,4.91-.8c.36,0,.42.07.41.42a10.06,10.06,0,0,1-.94,3.88,24,24,0,0,1-4.22,6.66l-.17.18c-.11.15-.4.25-.31.43l0,0h-.25C157,50,147.34,52.29,138,50.4c-.15-.58,3.29-5.23,10-9.14Zm-7.55,8.4c.22.27,1,.16,1.31.17.56,0,1.12,0,1.68,0a57.08,57.08,0,0,0,8.46-.86,27.25,27.25,0,0,0,3.2-.81,9.63,9.63,0,0,0,2.68-1.14,9.82,9.82,0,0,0,2.17-2.33,22.61,22.61,0,0,0,2.08-3.3,35,35,0,0,0,1.52-3.43c.06-.14.06-.25-.15-.21-1,.22-2,.33-3,.57a50.71,50.71,0,0,0-6.56,2.35c-1.47.59-3,1.11-4.38,1.82a30.51,30.51,0,0,0-4.18,2.52,29.8,29.8,0,0,0-3.48,2.87A10.75,10.75,0,0,0,141,48.86c-.12.13-.38.39-.31.6Z" transform="translate(1.47)"/><path class="cls-7" d="M100.73,36.71a2.74,2.74,0,0,1,0,5.48H61.28a2.74,2.74,0,0,1,0-5.48h39.45m0-1.7H61.28a4.45,4.45,0,0,0,0,8.9h39.45a4.45,4.45,0,1,0,0-8.9Z" transform="translate(1.47)"/><path class="cls-7" d="M100.73,42.2a2.74,2.74,0,0,1,0,5.48H61.28a2.74,2.74,0,1,1,0-5.48h39.45m0-1.71H61.28a4.45,4.45,0,1,0,0,8.9h39.45a4.45,4.45,0,1,0,0-8.9Z" transform="translate(1.47)"/><path class="cls-7" d="M81.25,3.42c7.18,0,6.24,7.05,14.57,7.05h2.07c.37,0,.73,0,1.09.08h.09c.34,0,.66.09,1,.16l.17,0a10,10,0,0,1,1,.25h0c5.76,1.78,7.93,7.71,3.15,16.36-1.92,3.48-3.44,6.61-4.63,9.35h1a2.74,2.74,0,0,1,0,5.48,2.74,2.74,0,0,1,0,5.48h-2.2c.43.17.87.33,1.3.51l.56.25c.53.23,1.06.46,1.59.71l.53.27c.52.26,1,.52,1.55.79l.51.29c.51.28,1,.57,1.52.87l.49.31c.49.31,1,.61,1.47.94l.5.35c.47.32.94.65,1.4,1,.17.12.33.26.49.39.45.34.9.68,1.33,1l.51.44c.42.35.84.71,1.24,1.07l.53.5,1.15,1.09,0,0h0A47.6,47.6,0,0,1,129.3,92.34c0,26.47,2.19,47.93-48.29,47.93-32.59,0-43.22-9-46.67-22.41l0-.13c-.24-1-.44-1.91-.62-2.9,0,0,0-.08,0-.11-.17-1-.31-2-.43-3,0,0,0-.08,0-.11-.11-1-.21-2.09-.28-3.16,0,0,0-.08,0-.12q-.11-1.61-.15-3.27v-.13c0-1.1-.06-2.22-.07-3.35v-.17c0-1.13,0-2.27,0-3.43v-.18c0-.82,0-1.64,0-2.47V92.35A47.94,47.94,0,0,1,63.48,47.69H61.29a2.74,2.74,0,0,1,0-5.48,2.74,2.74,0,0,1,0-5.48h1.47c-.89-2-2-4.31-3.26-6.77-.12-.22-.22-.44-.34-.66-.33-.63-.68-1.27-1-1.92-5.76-10.44-1.42-16.92,7.14-16.92l.75,0h.67c8.33,0,7.39-7.07,14.57-7.07m0-3.42c-4.91,0-7.35,2.53-9.13,4.38-1.61,1.67-2.58,2.68-5.45,2.68h-.52l-.89,0c-5.31,0-9.43,2-11.62,5.73-2.49,4.22-2,10,1.48,16.26.35.63.69,1.26,1,1.87l.19.36.15.29c.49.94,1,1.88,1.41,2.8a6.15,6.15,0,0,0-2.76,5.13,6,6,0,0,0,.65,2.74A6.18,6.18,0,0,0,55.12,45a6.06,6.06,0,0,0,.59,2.62A51.59,51.59,0,0,0,38.55,63.05,50.78,50.78,0,0,0,29.3,92.36v5.57c0,1.18,0,2.33,0,3.48v.17c0,1.23,0,2.35.07,3.42v.14c0,1.21.09,2.31.16,3.38v.14c.07,1.13.17,2.25.29,3.3V112h0v0c.13,1.12.28,2.21.46,3.24l0,.12c.19,1.08.41,2.14.67,3.15l0,.13c2.15,8.38,6.75,14.4,14.08,18.41,8.09,4.42,19.83,6.57,35.9,6.57,21.23,0,34.79-3.68,42.67-11.58,9.14-9.17,9.09-22.5,9-36.6,0-1,0-2.1,0-3.16a50.86,50.86,0,0,0-14.59-35.75h0l0,0-.3-.31-.15-.16-.06-.06,0,0c-.33-.33-.69-.67-1-1l-.13-.12-.18-.17-.38-.36c-.41-.38-.84-.73-1.27-1.09l-.07-.06-.17-.15-.38-.32-1.4-1.1-.19-.15-.36-.28c-.49-.37-1-.71-1.5-1.06l-.17-.12-.37-.26c-.55-.37-1.09-.71-1.57-1l-.16-.1c-.12-.08-.24-.16-.37-.23l-1.55-.89a6.1,6.1,0,0,0,.59-2.62,6,6,0,0,0-.65-2.74,6.14,6.14,0,0,0-1.75-7.62c.88-1.82,1.85-3.69,2.88-5.57,3.9-7.07,3.34-12,2.19-14.81a10.68,10.68,0,0,0-4.12-5l.15-.44-3.35-1-.13,0h0c-.37-.11-.76-.21-1.16-.29l-.17,0c-.46-.09-.86-.15-1.27-.2h-.11c-.42,0-.86-.08-1.34-.1h-.89c-.26,0-.52,0-.79,0H95.8c-2.87,0-3.84-1-5.45-2.68C88.6,2.53,86.16,0,81.25,0Z" transform="translate(1.47)"/><path class="cls-10" d="M81,44.41A48.11,48.11,0,0,1,129.3,92.34c0,26.47,2.19,47.93-48.29,47.93S32.72,118.81,32.72,92.34A48.11,48.11,0,0,1,81,44.41Z" transform="translate(1.47)"/><path class="cls-11" d="M66.49,48.21c-.24-2.58-2.44-10.1-8.37-20.84S57,10.08,66,10.46s7.88-7,15.24-7,6.19,7.42,15.24,7,13.81,6.16,7.89,16.91S96.26,45.64,96,48.21C93.87,71.05,68.64,71.05,66.49,48.21Z" transform="translate(1.47)"/><path class="cls-12" d="M60.06,31c-.6-1.17-1.24-2.39-1.94-3.66C52.2,16.62,57,10.07,66,10.45s7.88-7,15.24-7,6.19,7.42,15.24,7a14.15,14.15,0,0,1,4.74.54c-1.15,3.36-1.75,5.82-2.38,7.39C93.31,32.23,74,36,60.06,31Z" transform="translate(1.47)"/><path class="cls-13" d="M81,44.41a48.33,48.33,0,0,1,34.21,14.1,47.42,47.42,0,0,1,4.68,20.6c0,26.47,2.19,47.93-48.29,47.93-18.41,0-29.82-2.86-36.87-7.77-2.32-7.68-2-17-2-26.93A48.1,48.1,0,0,1,81,44.41Z" transform="translate(1.47)"/><path class="cls-14" d="M94.13,91.86q-2.3-2.74-7.91-4.66c-.86-.29-1.78-.58-2.76-.84V73.61a6.12,6.12,0,0,1,2.76,2.27,8,8,0,0,1,1.16,3l8.25-1.08a13.74,13.74,0,0,0-3.91-7.82,12.62,12.62,0,0,0-5.5-3,19,19,0,0,0-2.76-.54V63.17H78.74V66.4a17,17,0,0,0-2.1.34,13.06,13.06,0,0,0-6.89,3.86,12.72,12.72,0,0,0-3.37,9,13.88,13.88,0,0,0,3,9,16.41,16.41,0,0,0,7.28,4.85q1,.38,2.1.69v13.67a8,8,0,0,1-2.1-1.49,10.39,10.39,0,0,1-1.09-1.25,10.7,10.7,0,0,1-2-4.5l-8.52.91c.66,4.29,2.15,7.61,4.5,10a14.44,14.44,0,0,0,7.07,3.84,20,20,0,0,0,2.1.37v5.95h4.72v-6.1a20.69,20.69,0,0,0,2.76-.58A14.27,14.27,0,0,0,97,100.55,13,13,0,0,0,94.13,91.86ZM78.73,84.8a8.86,8.86,0,0,1-2.1-1.26,5.78,5.78,0,0,1-1.07-1.15,5.49,5.49,0,0,1-1-3.21,5.74,5.74,0,0,1,1.14-3.46,6,6,0,0,1,1-1,6.33,6.33,0,0,1,2.1-1.17ZM87.44,106a6.61,6.61,0,0,1-4,2.26V95.5a11.07,11.07,0,0,1,2.76,1.16,5.65,5.65,0,0,1,2.76,5A6.34,6.34,0,0,1,87.44,106Z" transform="translate(1.47)"/><path class="cls-15" d="M104.05,83.21a1.84,1.84,0,0,1-.33,0,1.76,1.76,0,0,1-1.4-2.05c2.74-14.52.44-25.15-7.44-34.47a1.75,1.75,0,1,1,2.68-2.26c8.62,10.2,11.16,21.74,8.21,37.39A1.75,1.75,0,0,1,104.05,83.21Z" transform="translate(1.47)"/><path class="cls-15" d="M117.44,77.31a1.75,1.75,0,0,1-1.71-1.38c-3.14-14.44-9.4-23.33-20.29-28.84A1.76,1.76,0,0,1,97,44c11.92,6,18.75,15.66,22.14,31.23a1.75,1.75,0,0,1-1.34,2.09Z" transform="translate(1.47)"/><path class="cls-16" d="M61.29,36.71h39.45a2.74,2.74,0,0,1,2.74,2.74h0a2.74,2.74,0,0,1-2.74,2.74H61.29a2.74,2.74,0,0,1-2.74-2.74h0A2.75,2.75,0,0,1,61.29,36.71Z" transform="translate(1.47)"/><path class="cls-16" d="M61.29,42.2h39.45a2.74,2.74,0,0,1,2.74,2.74h0a2.74,2.74,0,0,1-2.74,2.74H61.29a2.74,2.74,0,0,1-2.74-2.74h0A2.74,2.74,0,0,1,61.29,42.2Z" transform="translate(1.47)"/><path class="cls-17" d="M57.44,41.75h47.14" transform="translate(1.47)"/><path class="cls-17" d="M57.44,48h47.14" transform="translate(1.47)"/><path class="cls-7" d="M83.46,63.15v3.23a18.74,18.74,0,0,1,2.76.54,12.73,12.73,0,0,1,5.5,3,13.74,13.74,0,0,1,3.91,7.82l-8.25,1.08a7.94,7.94,0,0,0-1.16-3,6.18,6.18,0,0,0-2.76-2.27V86.34c1,.26,1.9.55,2.76.84q5.61,1.92,7.91,4.66A13,13,0,0,1,97,100.5a14.27,14.27,0,0,1-10.74,14.34,20.69,20.69,0,0,1-2.76.58v6.1H78.75v-6a19.11,19.11,0,0,1-2.1-.37,14.35,14.35,0,0,1-7.07-3.84c-2.35-2.34-3.84-5.66-4.5-10l8.52-.91a10.83,10.83,0,0,0,2,4.5,11.22,11.22,0,0,0,1.09,1.25,8.09,8.09,0,0,0,2.1,1.49V94.07q-1.11-.31-2.1-.69a16.36,16.36,0,0,1-7.28-4.85,13.94,13.94,0,0,1-3-9,12.78,12.78,0,0,1,3.37-9,13.1,13.1,0,0,1,6.89-3.86,19.18,19.18,0,0,1,2.1-.34V63.12h4.72M78.73,84.8V73.51a6.31,6.31,0,0,0-2.1,1.17,6.39,6.39,0,0,0-1,1,5.79,5.79,0,0,0-1.14,3.46,5.49,5.49,0,0,0,1,3.21,6.07,6.07,0,0,0,1.07,1.15,8.86,8.86,0,0,0,2.1,1.26m4.73,23.42a6.8,6.8,0,0,0,2.76-1.13A6.55,6.55,0,0,0,87.45,106,6.42,6.42,0,0,0,89,101.69a5.65,5.65,0,0,0-2.76-5,10.37,10.37,0,0,0-2.76-1.16v12.71m0-48.48H78.74a3.42,3.42,0,0,0-3.42,3.42v.37a16.35,16.35,0,0,0-8.08,4.73A16.09,16.09,0,0,0,63,79.58a17.34,17.34,0,0,0,3.74,11.13,19.73,19.73,0,0,0,8.64,5.87v1a3.34,3.34,0,0,0-1.74-.48l-.37,0-8.52.91a3.41,3.41,0,0,0-3,3.91c.77,5,2.61,9,5.47,11.85a17.69,17.69,0,0,0,8.17,4.61v3.13A3.42,3.42,0,0,0,78.75,125h4.72a3.42,3.42,0,0,0,3.42-3.42v-3.32l.28-.08a17.68,17.68,0,0,0,13.23-17.61,16.38,16.38,0,0,0-3.64-10.86c-2-2.33-5-4.2-9.42-5.69l-.45-.15V82.23a4,4,0,0,0,.5,0,3.4,3.4,0,0,0,.45,0l8.25-1.08a3.41,3.41,0,0,0,2.92-4,17.12,17.12,0,0,0-4.91-9.7,16.22,16.22,0,0,0-6.95-3.83l-.26-.07v-.41a3.45,3.45,0,0,0-3.43-3.44Z" transform="translate(1.47)"/><g class="cls-2"><path class="cls-18" d="M130.53,117.26h-.15c-19,0-4-15.17-6.75-15.4-8.93-.74-12.52,15.63-25.38,20.17-13.1,3.85-23.2,8.63-35.73,8.63-44.77,0-44.42-23.66-64-17.32v72.13H165V121.41A159.09,159.09,0,0,0,130.53,117.26Z" transform="translate(1.47)"/><path class="cls-19" d="M136.27,143c26.79-.08,28.75,5.25,28.75,5.25v44H-1.46v-36.7s16.44-6.08,39.87-1.95C82.48,161.37,109.48,143.09,136.27,143Z" transform="translate(1.47)"/><path class="cls-20" d="M34.12,136.35c85.8,12.58,66.6-13.16,87.78-34.42-8.82.7-10.49,14.9-23.11,19.94-12.92,5.16-23.56,8.79-36.27,8.79-44.77,0-44.42-23.66-64-17.32v19C2.22,132,12.36,133.16,34.12,136.35Z" transform="translate(1.47)"/></g><g class="cls-21"><path class="cls-22" d="M64.78,159.43c6.07-.5,12.09-.68,18-1.42a114.77,114.77,0,0,0,17.51-3.29c2.88-.73,5.75-1.63,8.69-2.44,1.48-.38,3-.78,4.48-1.09a43.78,43.78,0,0,1,4.58-.78,50.12,50.12,0,0,1,18.29,1.29c-6.09,0-12.09.13-17.85,1.38s-11.34,3.37-17.29,5l-2.23.57-2.26.48c-1.5.34-3,.61-4.55.81-.76.1-1.52.23-2.29.31l-2.3.2-2.29.2c-.76.06-1.53,0-2.3.06A94,94,0,0,1,64.78,159.43Z" transform="translate(1.47)"/></g><g class="cls-21"><path class="cls-23" d="M14.71,165.46a75.06,75.06,0,0,1,13.89-1.34,124.88,124.88,0,0,1,13.95.93l13.71,1.42a71.45,71.45,0,0,0,13.66.3l.07.28a32.22,32.22,0,0,1-13.92,2.26c-4.74-.12-9.29-1.24-13.84-2a126.66,126.66,0,0,0-13.68-1.76,80.57,80.57,0,0,0-13.8.2Z" transform="translate(1.47)"/></g></g></g></svg>